<svg width="105" height="35" viewBox="0 0 105 35" fill="none" xmlns="http://www.w3.org/2000/svg">
<path d="M16.2988 9.27677C16.2034 9.01012 16.1782 8.79511 16.2231 8.63176C16.4303 7.91045 16.7957 7.11118 17.3193 6.23395C17.4212 6.08546 17.5241 5.99723 17.6278 5.96925C17.7409 5.93874 17.8785 5.96212 18.0406 6.03939C18.5804 6.2769 19.0494 6.51842 19.4474 6.76395C19.8421 7.00028 20.1957 7.23759 20.5084 7.47588C20.6554 7.59757 20.7749 7.78714 20.867 8.0446L26.8916 24.8851C26.9903 25.161 26.9981 25.3706 26.915 25.514C26.838 25.6457 26.6581 25.7497 26.3752 25.826L23.3628 26.6385C23.0799 26.7148 22.8591 26.7189 22.7003 26.6508C22.5477 26.571 22.4221 26.3932 22.3234 26.1173L19.7034 18.7935L11.3024 21.0595L13.9225 28.3833C14.0211 28.6591 14.0289 28.8688 13.9458 29.0122C13.8689 29.1438 13.689 29.2478 13.4061 29.3241L10.3936 30.1367C10.1108 30.2129 9.88998 30.2171 9.73122 30.149C9.57861 30.0692 9.45295 29.8913 9.35427 29.6155L2.80171 11.2991C2.70303 11.0233 2.69217 10.8195 2.76913 10.6879C2.85223 10.5445 3.03521 10.4346 3.31807 10.3583L6.33052 9.54578C6.61338 9.46948 6.83112 9.47124 6.98374 9.55107C7.14249 9.61915 7.27121 9.79111 7.3699 10.067L9.93072 17.2252L18.3317 14.9592L16.2988 9.27677Z" fill="#69259D"/>
<path d="M35.6603 27.0283C34.0113 26.9622 32.5997 26.6421 31.4257 26.0678C30.2526 25.4839 29.378 24.619 28.8021 23.4732C28.2262 22.3274 28.0153 20.8692 28.1695 19.0986C28.4006 16.4426 29.2585 14.461 30.7432 13.1536C32.2278 11.8463 34.1021 11.238 36.3659 11.3287C37.8393 11.3877 39.0605 11.7002 40.0296 12.2663C41.0085 12.8327 41.7211 13.5885 42.1676 14.5339C42.6238 15.4796 42.8003 16.546 42.697 17.7329C42.5962 18.8906 42.2283 19.6862 41.5933 20.1196C40.9583 20.553 40.0699 20.7468 38.9283 20.7011L32.6491 20.4496C32.64 21.4548 32.9394 22.2331 33.5475 22.7847C34.1653 23.3366 35.0401 23.6353 36.172 23.6806C37.0697 23.7166 37.7984 23.614 38.3579 23.3728C38.9281 23.1223 39.3272 22.9235 39.5555 22.7764C39.7527 22.6476 39.968 22.5928 40.2014 22.6119C40.3868 22.6193 40.6468 22.6688 40.9816 22.7603C41.3269 22.8425 41.6619 22.9877 41.9865 23.196C42.2194 23.3322 42.3261 23.5122 42.3067 23.736C42.2957 23.8625 42.2556 24.0415 42.1865 24.273C42.1454 24.408 42.0792 24.6055 41.988 24.8655C41.8977 25.1157 41.7892 25.3505 41.6623 25.57C41.5945 25.6746 41.4929 25.7731 41.3576 25.8653C41.1506 25.9937 40.8178 26.161 40.3592 26.3671C39.9104 26.5737 39.3031 26.7446 38.5373 26.8799C37.7708 27.0249 36.8117 27.0744 35.6603 27.0283ZM32.8802 17.4568L37.6518 17.6479C38.1495 17.6678 38.4182 17.4492 38.458 16.9919C38.5181 16.3012 38.3489 15.7135 37.9505 15.2289C37.5626 14.735 36.9345 14.4707 36.066 14.4359C35.1195 14.398 34.3956 14.6716 33.8942 15.2568C33.4026 15.8424 33.0646 16.5757 32.8802 17.4568Z" fill="#69259D"/>
<path d="M49.1512 28.9246C48.9365 29.012 48.7851 29.0556 48.6973 29.0556C48.6094 29.0556 48.5204 29.0217 48.4302 28.9537C48.2229 28.7984 48.006 28.4199 47.7798 27.8181C47.5644 27.2066 47.5267 26.27 47.6667 25.0082L49.5365 8.14866C49.5623 7.91571 49.6311 7.73615 49.7427 7.60997C50.2121 7.07613 50.8767 6.49862 51.7366 5.87743C51.8841 5.78037 52.0116 5.73184 52.119 5.73184C52.2459 5.73184 52.3626 5.78037 52.469 5.87743C52.8534 6.19773 53.1716 6.49862 53.4236 6.7801C53.6854 7.06157 53.9037 7.3382 54.0787 7.60997C54.1623 7.73615 54.1912 7.91571 54.1654 8.14866L52.3941 24.1201C52.323 24.7607 52.3159 25.3091 52.3727 25.7653C52.4306 26.2117 52.5178 26.5709 52.6341 26.8426C52.7646 27.1629 52.6758 27.391 52.3678 27.5269L49.1512 28.9246Z" fill="#69259D"/>
<path d="M59.4292 30.7869C59.2068 30.8448 59.052 30.8678 58.9649 30.8558C58.8779 30.8439 58.7934 30.7979 58.7117 30.718C58.5234 30.535 58.3505 30.1283 58.193 29.4977C58.0473 28.859 58.1136 27.9203 58.3919 26.6816L62.1108 10.1314C62.1622 9.90276 62.2502 9.73312 62.3748 9.62252C62.8989 9.1542 63.6213 8.66887 64.542 8.16653C64.6988 8.08983 64.8305 8.05877 64.9369 8.07336C65.0627 8.09061 65.1729 8.15483 65.2676 8.26603C65.613 8.6375 65.8949 8.98063 66.1134 9.29542C66.3416 9.61153 66.5273 9.91691 66.6705 10.2116C66.7394 10.3487 66.7482 10.5316 66.6968 10.7603L63.1738 26.4387C63.0325 27.0675 62.9648 27.6131 62.9706 28.0756C62.9785 28.5284 63.0251 28.8982 63.1103 29.1849C63.2041 29.5219 63.0909 29.7372 62.7707 29.8308L59.4292 30.7869Z" fill="#69259D"/>
<path d="M78.2687 32.1021C75.8131 32.2638 73.8272 31.7389 72.311 30.5273C70.7949 29.3157 69.9541 27.4186 69.7885 24.836C69.6186 22.1852 70.2324 20.1581 71.6299 18.7546C73.0365 17.3408 74.9822 16.5521 77.467 16.3884C79.8642 16.2306 81.8254 16.7522 83.3507 17.9534C84.8753 19.1449 85.7182 20.9978 85.8794 23.5122C86.0474 26.1337 85.4543 28.1791 84.1002 29.6482C82.7461 31.1173 80.8023 31.9353 78.2687 32.1021ZM78.1881 28.5548C79.26 28.4842 80.0476 28.0996 80.5508 27.401C81.0534 26.6926 81.2528 25.5295 81.1491 23.9117C81.0504 22.3719 80.7034 21.3085 80.108 20.7213C79.5217 20.1238 78.6877 19.8606 77.6061 19.9319C76.5634 20.0005 75.7619 20.3958 75.2014 21.1178C74.6501 21.8294 74.4232 22.9454 74.5206 24.4657C74.6224 26.0542 74.9765 27.1515 75.5829 27.7575C76.1991 28.3628 77.0675 28.6286 78.1881 28.5548Z" fill="#69259D"/>
<path d="M92.3344 20.6431C91.9398 20.4995 91.7889 20.1967 91.8816 19.7346L94.2432 7.71806C94.3382 7.2465 94.6105 7.09255 95.0602 7.25621L98.4189 8.47866C98.8685 8.64233 99.0275 8.95326 98.8957 9.41147L95.4605 21.0372C95.3311 21.4859 95.0691 21.6385 94.6745 21.4948L92.3344 20.6431ZM89.4992 24.7709C89.5293 24.6476 89.5926 24.5518 89.6891 24.4837C89.7972 24.4094 89.9351 24.3149 90.1029 24.2004C90.4569 23.978 90.8557 23.7565 91.2992 23.5357C91.745 23.3054 92.1965 23.0927 92.6538 22.8976C92.9295 22.7914 93.1224 22.7583 93.2325 22.7984C93.3426 22.8384 93.4984 22.9985 93.6999 23.2784C94.3018 24.2515 94.8097 25.1801 95.2235 26.0642C95.3035 26.2689 95.372 26.4384 95.4292 26.5729C95.4886 26.6978 95.5033 26.8219 95.4732 26.9453C95.4408 27.0781 95.366 27.18 95.2488 27.2509C95.1407 27.3252 95.0062 27.4261 94.8453 27.5534C94.5028 27.7696 94.1098 27.9881 93.6663 28.2089C93.2342 28.4236 92.7942 28.6301 92.3461 28.8286C92.0681 28.9443 91.8649 28.9788 91.7364 28.932C91.6355 28.8953 91.4808 28.7305 91.2725 28.4378C90.9589 27.9621 90.6751 27.4869 90.4212 27.0123C90.1673 26.5377 89.9432 26.0843 89.7489 25.652C89.6597 25.4439 89.5854 25.2775 89.526 25.1525C89.4757 25.0309 89.4668 24.9037 89.4992 24.7709Z" fill="#69259D"/>
</svg>
