<svg width="440" height="105" viewBox="0 0 440 105" fill="none" xmlns="http://www.w3.org/2000/svg">
<path d="M33.8643 90.9193C32.4338 89.9812 30.7938 88.7007 28.9443 87.0775C27.0859 85.4381 25.1793 83.6335 23.2246 81.6639C21.2699 79.6942 19.4067 77.7168 17.635 75.7317C15.8544 73.7303 14.2968 71.883 12.9622 70.1898C11.644 68.4877 10.6975 67.1135 10.1227 66.0671C9.88914 65.6421 9.79493 65.2575 9.84004 64.9135C9.92865 64.1837 10.09 63.3927 10.3242 62.5404C10.5657 61.6628 10.8918 60.7068 11.3025 59.6724C11.44 59.3415 11.615 59.1176 11.8275 59.0009C12.0401 58.8841 12.3065 58.8654 12.6268 58.9449C13.7365 59.144 14.7183 59.3814 15.5722 59.6573C16.4171 59.9167 17.1713 60.2048 17.8347 60.5214C18.1493 60.6678 18.4368 60.9781 18.6973 61.4522L18.6434 61.3541C19.2362 62.4331 20.1791 63.82 21.4719 65.5148C22.7722 67.1842 24.253 68.9886 25.9143 70.9279C27.583 72.8418 29.271 74.7133 30.9781 76.5423C32.6927 78.3459 34.2733 79.9252 35.7199 81.28L35.8671 81.1992C35.5464 78.5234 35.0651 75.691 34.4234 72.7021C33.7817 69.7131 33.0594 66.6939 32.2567 63.6444C31.454 60.5949 30.6508 57.6414 29.8472 54.7839C29.6229 53.9494 29.6469 53.2764 29.9193 52.765C30.199 52.2282 30.8049 51.7038 31.7368 51.1918L34.6796 49.5751C35.5134 49.117 36.202 48.8983 36.7455 48.919C37.2889 48.9397 37.8751 49.3094 38.5041 50.028C39.971 51.691 41.5536 53.4288 43.2518 55.2414C44.95 57.0541 46.66 58.8495 48.3819 60.6279C50.1112 62.3808 51.7686 64.003 53.3541 65.4944C54.956 66.9769 56.386 68.2238 57.6441 69.2354L57.7912 69.1545C57.6246 67.2241 57.2317 65.0562 56.6126 62.6508C56.0098 60.2364 55.2946 57.8305 54.4671 55.4331C53.6469 53.0104 52.8185 50.8051 51.9817 48.8172C51.1614 46.8203 50.4548 45.2823 49.862 44.2033L49.9159 44.3014C49.6554 43.8272 49.5395 43.4227 49.5683 43.0876C49.7603 41.5774 50.2151 39.8484 50.9327 37.9004C51.0865 37.5605 51.2615 37.3367 51.4577 37.2289C51.6375 37.1301 51.904 37.1114 52.257 37.1729C53.334 37.39 54.2913 37.6409 55.1288 37.9257C55.9574 38.1942 56.7034 38.4867 57.3668 38.8033C57.674 38.975 57.9489 39.2816 58.1914 39.723C58.9459 41.0964 59.6977 42.833 60.4469 44.9328C61.1962 47.0326 61.9028 49.3262 62.5668 51.8133C63.2383 54.2752 63.8361 56.7775 64.3604 59.3201C64.901 61.8538 65.3244 64.271 65.6306 66.5717C65.9441 68.847 66.1087 70.8318 66.1242 72.5259C66.1374 73.9447 66.0148 74.9805 65.7562 75.6333C65.505 76.2608 64.9462 76.8126 64.0797 77.2887L61.0633 78.9458C60.3275 79.35 59.6165 79.5278 58.93 79.4793C58.2599 79.4217 57.4081 79.0916 56.3746 78.4888C55.5886 78.0267 54.5845 77.3225 53.3624 76.3764C52.1566 75.4213 50.8843 74.3644 49.5454 73.2057C48.2138 72.0217 46.9583 70.8598 45.7787 69.72C44.5992 68.5803 43.6508 67.5901 42.9337 66.7497C42.112 65.7964 41.3455 64.866 40.6341 63.9585C39.9301 63.0257 39.4045 62.2822 39.0575 61.7279L38.8613 61.8357C39.143 62.4259 39.4723 63.2772 39.8493 64.3896C40.2337 65.4767 40.5997 66.6272 40.9473 67.841C41.2949 69.0547 41.646 70.4687 42.0007 72.0829C42.3555 73.6971 42.6738 75.342 42.9558 77.0175C43.2377 78.6929 43.4613 80.2622 43.6265 81.7251C43.7917 83.188 43.8549 84.3878 43.816 85.3243C43.782 86.3859 43.5867 87.27 43.23 87.9768C42.8897 88.6745 42.2209 89.2974 41.2236 89.8453L38.4525 91.3677C37.586 91.8437 36.8467 92.0477 36.2346 91.9796C35.6225 91.9114 34.8324 91.558 33.8643 90.9193ZM58.151 39.6495L58.2049 39.7476L58.1914 39.723C58.1734 39.6904 58.1599 39.6658 58.151 39.6495ZM10.1092 66.0426L10.1227 66.0671L10.1631 66.1407L10.1092 66.0426Z" fill="#69259D"/>
<path d="M97.3143 31.444C97.195 30.9164 97.1954 30.4955 97.3157 30.1815C97.8629 28.7955 98.7232 27.2718 99.8967 25.6104C100.12 25.3303 100.332 25.1677 100.532 25.1224C100.751 25.0731 101.003 25.1308 101.289 25.2957C102.245 25.8061 103.069 26.318 103.759 26.8313C104.444 27.3265 105.053 27.82 105.585 28.3117C105.833 28.5617 106.014 28.9414 106.13 29.4509L113.664 62.7742C113.787 63.3201 113.756 63.7289 113.568 64.0007C113.395 64.2502 113.036 64.4367 112.49 64.5601L106.677 65.8744C106.131 65.9979 105.717 65.9862 105.435 65.8396C105.168 65.6706 104.972 65.3132 104.849 64.7674L101.572 50.2754L85.3607 53.9408L88.6374 68.4328C88.7608 68.9786 88.7289 69.3875 88.5418 69.6593C88.3687 69.9088 88.0092 70.0952 87.4634 70.2187L81.6502 71.533C81.1044 71.6564 80.6906 71.6448 80.4088 71.4982C80.1411 71.3292 79.9455 70.9718 79.8221 70.426L71.6274 34.1824C71.5039 33.6365 71.5288 33.2389 71.7019 32.9894C71.889 32.7175 72.2555 32.5199 72.8014 32.3965L78.6145 31.0821C79.1604 30.9587 79.5671 30.9815 79.8348 31.1505C80.1166 31.2971 80.3192 31.6434 80.4426 32.1892L83.6452 46.3537L99.8566 42.6883L97.3143 31.444Z" fill="#69259D"/>
<path d="M143.021 23.5643C144.133 24.9345 145.291 26.7225 146.493 28.9282C147.712 31.1141 148.908 33.5258 150.08 36.1632C151.253 38.8005 152.327 41.5094 153.303 44.2898C154.296 47.0504 155.134 49.7179 155.817 52.2921C156.5 54.8664 156.941 57.1659 157.141 59.1907C157.221 60.1763 156.805 60.6974 155.892 60.7539L149.134 61.1723C148.259 61.2265 147.776 60.8172 147.684 59.9445C147.481 57.8639 146.989 55.3525 146.208 52.4105L130.96 53.3547C130.619 56.2914 130.478 58.842 130.537 61.0063C130.554 61.8836 130.106 62.3506 129.194 62.4071L122.575 62.8169C122.24 62.8377 121.955 62.7619 121.72 62.5895C121.484 62.3985 121.36 62.0604 121.349 61.5752C121.314 59.5028 121.467 57.1385 121.807 54.4822C122.164 51.8061 122.665 49.0278 123.309 46.1471C123.953 43.2664 124.694 40.4451 125.532 37.6832C126.369 34.9027 127.258 32.3526 128.198 30.0329C129.139 27.7133 130.077 25.8049 131.012 24.3079C131.505 23.5111 132.038 22.9174 132.612 22.5268C133.204 22.135 133.947 21.9115 134.841 21.8561L138.862 21.6071C139.775 21.5506 140.549 21.6802 141.185 21.9959C141.822 22.3116 142.433 22.8344 143.021 23.5643ZM137.119 30.5739C136.011 32.6049 135.029 35.0112 134.174 37.7929C133.318 40.5746 132.607 43.4221 132.039 46.3354L144.16 45.5849C143.2 42.7661 142.124 40.0293 140.932 37.3744C139.74 34.7196 138.525 32.4493 137.286 30.5635L137.119 30.5739Z" fill="#69259D"/>
<path d="M179.347 60.2931C179.316 60.8519 179.173 61.2362 178.918 61.446C178.683 61.6383 178.286 61.7188 177.727 61.6874L171.777 61.3528C171.218 61.3214 170.823 61.1965 170.593 60.978C170.382 60.7419 170.292 60.3445 170.323 59.7858L172.079 28.5526L163.754 28.0846C163.307 28.0595 162.976 27.9661 162.761 27.8046C162.296 27.4421 161.815 27.0134 161.32 26.5185C160.843 26.0246 160.325 25.435 159.766 24.7496C159.593 24.497 159.511 24.2962 159.52 24.1472C159.529 23.9796 159.633 23.7986 159.83 23.6042C160.463 22.9858 161.044 22.458 161.573 22.0207C162.121 21.5844 162.646 21.2122 163.149 20.9042C163.418 20.7699 163.758 20.7142 164.167 20.7372L189.869 22.1822C190.316 22.2074 190.647 22.3007 190.862 22.4623C191.328 22.8247 191.808 23.2534 192.303 23.7483C192.799 24.2433 193.317 24.8329 193.857 25.5172C194.03 25.7698 194.112 25.9706 194.104 26.1196C194.094 26.2872 193.991 26.4682 193.793 26.6626C193.179 27.282 192.598 27.8099 192.05 28.2462C191.503 28.6824 190.977 29.0546 190.474 29.3626C190.205 29.4969 189.866 29.5526 189.456 29.5296L181.103 29.0599L179.347 60.2931Z" fill="#69259D"/>
<path d="M201.326 39.9982C200.642 39.907 200.317 39.5249 200.35 38.8518L201.078 24.496C201.107 24.1422 201.248 23.8599 201.502 23.6491C201.756 23.4383 202.058 23.3563 202.409 23.4032L209.288 24.3201C209.658 24.3694 209.936 24.5382 210.124 24.8267C210.313 25.0966 210.366 25.4048 210.283 25.7512L207.173 39.7613C207.029 40.4196 206.624 40.7043 205.958 40.6156L201.326 39.9982Z" fill="#69259D"/>
<path d="M226.265 66.0189C223.926 65.6445 222.016 65.1217 220.537 64.4505C219.076 63.7822 217.926 63.0597 217.087 62.2831C216.269 61.4911 215.661 60.7421 215.264 60.0362C215.137 59.7703 215.026 59.5164 214.933 59.2748C214.839 59.0331 214.787 58.7697 214.776 58.4846C214.761 58.1044 214.764 57.6137 214.785 57.0125C214.808 56.3928 214.911 55.6914 215.093 54.9082C215.164 54.5796 215.266 54.3597 215.397 54.2485C215.549 54.1217 215.779 54.0451 216.085 54.0186C216.64 53.9751 217.349 53.9752 218.211 54.0187C219.094 54.0467 219.72 54.0902 220.088 54.1491C220.475 54.211 220.777 54.3348 220.992 54.5205C221.208 54.7062 221.454 55.0005 221.73 55.4035C222.036 55.8493 222.592 56.4483 223.397 57.2006C224.205 57.9345 225.549 58.4517 227.428 58.7524C229.233 59.0412 230.656 58.8818 231.698 58.2739C232.74 57.6661 233.368 56.6899 233.584 55.3453C233.699 54.6269 233.585 53.9192 233.243 53.2222C232.923 52.5098 232.242 51.749 231.2 50.94C230.161 50.1126 228.639 49.1794 226.632 48.1405C223.321 46.4016 221.032 44.5334 219.765 42.5359C218.498 40.5385 218.113 37.9833 218.611 34.8704C219.024 32.2917 219.995 30.2368 221.525 28.7058C223.054 27.1749 224.995 26.1441 227.347 25.6137C229.699 25.0833 232.321 25.0495 235.212 25.5123C237.441 25.8689 239.24 26.4308 240.61 27.1978C242.001 27.9494 243.049 28.7215 243.753 29.5143C244.46 30.2887 244.901 30.8977 245.076 31.3412C245.185 31.6043 245.248 31.8032 245.264 31.938C245.301 32.0574 245.313 32.2198 245.299 32.4254C245.263 33.0053 245.18 33.6437 245.049 34.3407C244.919 35.0377 244.728 35.8194 244.476 36.6858C244.373 36.9717 244.239 37.1581 244.074 37.245C243.931 37.3165 243.721 37.3301 243.444 37.2859C241.652 37.0368 240.285 36.7237 239.344 36.3464C238.972 36.1924 238.729 36.059 238.615 35.9463C238.501 35.8336 238.359 35.6597 238.188 35.4247C237.95 35.0275 237.545 34.5471 236.974 33.9835C236.424 33.4043 235.449 33.0028 234.05 32.7788C232.115 32.4693 230.672 32.6917 229.721 33.4462C228.772 34.1822 228.21 35.0936 228.036 36.1803C227.83 37.4697 228.266 38.5785 229.346 39.5069C230.428 40.4169 232.185 41.5387 234.616 42.8723C236.65 43.9724 238.37 45.0883 239.776 46.22C241.182 47.3518 242.179 48.6732 242.769 50.1844C243.377 51.6985 243.499 53.5883 243.137 55.8539C242.686 58.6721 241.658 60.9067 240.052 62.5578C238.465 64.2119 236.474 65.3196 234.08 65.8809C231.706 66.4268 229.101 66.4728 226.265 66.0189Z" fill="#69259D"/>
<path d="M289 73.4206C288.957 73.9786 288.806 74.3599 288.547 74.5645C288.308 74.752 287.91 74.8243 287.352 74.7814L281.41 74.325C280.852 74.2821 280.46 74.1491 280.234 73.926C280.027 73.6856 279.946 73.2865 279.989 72.7285L282.384 41.5379L274.071 40.8993C273.624 40.865 273.295 40.7649 273.083 40.599C272.626 40.227 272.154 39.7886 271.669 39.2836C271.203 38.7801 270.697 38.18 270.152 37.4833C269.984 37.2272 269.906 37.0248 269.918 36.876C269.931 36.7086 270.038 36.5297 270.239 36.3394C270.885 35.7342 271.476 35.2184 272.014 34.7919C272.571 34.367 273.103 34.0057 273.613 33.708C273.885 33.5792 274.225 33.5305 274.634 33.562L300.301 35.5334C300.747 35.5677 301.076 35.6678 301.288 35.8337C301.746 36.2057 302.217 36.6441 302.703 37.1491C303.188 37.6541 303.693 38.2542 304.22 38.9494C304.387 39.2055 304.465 39.4079 304.454 39.5567C304.441 39.7241 304.334 39.903 304.132 40.0933C303.506 40.7 302.914 41.2158 302.358 41.6408C301.801 42.0657 301.268 42.427 300.759 42.7247C300.487 42.8535 300.147 42.9022 299.737 42.8707L291.396 42.23L289 73.4206Z" fill="#69259D"/>
<path d="M337.983 40.0671C337.98 39.5261 338.071 39.1153 338.256 38.8345C339.089 37.5991 340.258 36.2967 341.762 34.9273C342.04 34.7021 342.282 34.5889 342.488 34.5879C342.711 34.5867 342.945 34.6975 343.189 34.9201C344.013 35.6247 344.707 36.3021 345.27 36.9521C345.833 37.5835 346.321 38.1966 346.734 38.7914C346.922 39.0889 347.018 39.4988 347.02 40.0211L347.194 74.1852C347.197 74.7448 347.078 75.1372 346.836 75.3622C346.613 75.5686 346.222 75.6732 345.663 75.676L339.703 75.7063C339.143 75.7092 338.742 75.6086 338.498 75.4046C338.273 75.1819 338.159 74.7908 338.156 74.2312L338.081 59.3736L321.46 59.4581L321.536 74.3157C321.539 74.8753 321.419 75.2676 321.178 75.4927C320.955 75.699 320.564 75.8036 320.005 75.8065L314.045 75.8368C313.485 75.8396 313.083 75.7391 312.84 75.5351C312.615 75.3124 312.501 74.9213 312.498 74.3617L312.309 37.2037C312.306 36.6441 312.416 36.2611 312.639 36.0548C312.881 35.8297 313.281 35.7157 313.841 35.7129L319.8 35.6826C320.36 35.6797 320.752 35.7897 320.977 36.0124C321.221 36.2163 321.344 36.5981 321.347 37.1577L321.421 51.6795L338.041 51.595L337.983 40.0671Z" fill="#69259D"/>
<path d="M368.789 72.4061C368.838 72.9636 368.751 73.3644 368.528 73.6082C368.323 73.8319 367.941 73.9679 367.384 74.016L361.446 74.5291C360.889 74.5772 360.48 74.5095 360.221 74.326C359.979 74.1222 359.833 73.7416 359.785 73.1841L356.844 39.1464C356.798 38.6074 356.855 38.1905 357.017 37.8957C357.747 36.5968 358.807 35.2041 360.195 33.7173C360.454 33.4702 360.686 33.3378 360.891 33.3202C361.114 33.3009 361.356 33.3923 361.617 33.5945C362.495 34.23 363.242 34.849 363.855 35.4513C364.467 36.035 365.004 36.6065 365.464 37.1659C365.675 37.4472 365.804 37.848 365.849 38.3684L368.789 72.4061Z" fill="#69259D"/>
<path d="M392.008 72.1698C389.674 72.575 387.699 72.7003 386.081 72.5456C384.483 72.3877 383.16 72.0777 382.114 71.6155C381.084 71.1318 380.266 70.6206 379.661 70.0818C379.455 69.8716 379.268 69.6674 379.101 69.4692C378.934 69.271 378.799 69.0388 378.696 68.7727C378.558 68.4179 378.402 67.9528 378.226 67.3775C378.048 66.7837 377.917 66.0869 377.835 65.287C377.796 64.953 377.82 64.7121 377.908 64.5643C378.011 64.395 378.204 64.248 378.485 64.1234C378.996 63.9022 379.666 63.6723 380.495 63.4337C381.34 63.1734 381.946 63.0114 382.314 62.9476C382.7 62.8806 383.025 62.8998 383.289 63.0054C383.554 63.1109 383.882 63.3096 384.273 63.6014C384.708 63.9235 385.428 64.3097 386.434 64.7598C387.436 65.1916 388.875 65.2448 390.75 64.9193C392.551 64.6066 393.845 63.9937 394.634 63.0807C395.422 62.1676 395.699 61.0402 395.466 59.6985C395.342 58.9818 395.005 58.3492 394.455 57.8009C393.921 57.231 393.03 56.7326 391.782 56.3055C390.531 55.8601 388.788 55.4716 386.553 55.1402C382.857 54.5702 380.085 53.5462 378.238 52.0682C376.391 50.5902 375.198 48.2982 374.659 45.1922C374.212 42.6191 374.464 40.3603 375.413 38.4157C376.363 36.4711 377.864 34.8663 379.917 33.6012C381.969 32.3361 384.438 31.4531 387.323 30.9522C389.547 30.5661 391.431 30.5135 392.976 30.7944C394.536 31.0538 395.777 31.4441 396.701 31.9653C397.621 32.4682 398.236 32.9011 398.545 33.2639C398.733 33.4773 398.857 33.6452 398.916 33.7674C398.991 33.8681 399.054 34.018 399.108 34.2169C399.262 34.7771 399.39 35.408 399.493 36.1096C399.596 36.8112 399.669 37.6126 399.712 38.514C399.708 38.8176 399.642 39.0373 399.514 39.1731C399.401 39.2874 399.207 39.3684 398.931 39.4163C397.155 39.7625 395.761 39.9099 394.748 39.8585C394.346 39.8336 394.073 39.7864 393.929 39.7168C393.784 39.6473 393.593 39.529 393.356 39.3619C393.001 39.0637 392.462 38.7408 391.739 38.393C391.031 38.0236 389.979 37.9602 388.582 38.2027C386.652 38.5377 385.36 39.2165 384.704 40.2391C384.045 41.2433 383.81 42.2876 383.999 43.3719C384.222 44.6584 384.995 45.5656 386.317 46.0933C387.636 46.6027 389.662 47.0935 392.394 47.5658C394.676 47.946 396.665 48.4432 398.362 49.0573C400.059 49.6715 401.431 50.5976 402.479 51.8356C403.545 53.0705 404.275 54.8182 404.667 57.0788C405.156 59.8908 404.908 62.3382 403.926 64.421C402.961 66.5006 401.438 68.1945 399.355 69.5028C397.288 70.7894 394.839 71.6784 392.008 72.1698Z" fill="#69259D"/>
<path d="M416.037 51.1361C415.576 51.2872 415.193 51.2263 414.888 50.9535C414.465 50.5621 414.038 49.7106 413.608 48.3989C413.103 46.8568 412.979 45.523 413.239 44.3976C413.51 43.2486 414.194 41.9837 415.292 40.6028C416.04 39.6509 416.643 38.8545 417.1 38.2138C417.575 37.5672 417.87 36.9404 417.986 36.3334C418.095 35.7087 418.013 34.9797 417.74 34.1467C417.339 32.9236 416.641 32.112 415.646 31.7119C414.663 31.2883 413.471 31.306 412.071 31.7652C410.901 32.1488 409.863 32.6952 408.957 33.4046C408.063 34.0904 407.352 34.7358 406.824 35.3408C406.64 35.5581 406.412 35.672 406.141 35.6825C405.869 35.693 405.637 35.5827 405.443 35.3517L401.818 31.2106C401.507 30.861 401.5 30.51 401.797 30.1575C402.461 29.3703 403.498 28.4316 404.907 27.3413C406.334 26.2452 408.342 25.2728 410.93 24.4243C413.128 23.7036 415.212 23.3835 417.181 23.4639C419.169 23.5385 420.909 24.1163 422.402 25.1972C423.895 26.2782 425.014 27.953 425.758 30.2219C426.298 31.8703 426.542 33.302 426.489 34.5169C426.436 35.7319 426.123 36.9042 425.551 38.034C424.991 39.1403 424.216 40.3664 423.224 41.7124C422.042 43.317 421.302 44.4725 421.004 45.1789C420.705 45.8853 420.64 46.4956 420.809 47.0096C420.931 47.3818 421.062 47.6627 421.203 47.8521C421.338 48.0238 421.446 48.2338 421.527 48.4819C421.696 48.996 421.47 49.3547 420.849 49.5581L416.037 51.1361ZM415.805 60.6647C415.729 60.4343 415.733 60.2072 415.817 59.9834C415.912 59.7361 416.035 59.4211 416.184 59.0384C416.518 58.2614 416.923 57.4317 417.4 56.5491C417.87 55.6489 418.367 54.7695 418.89 53.9108C419.217 53.411 419.487 53.1262 419.7 53.0565C419.912 52.9867 420.316 53.0506 420.911 53.2482C422.824 54.0539 424.546 54.903 426.075 55.7953C426.404 56.0211 426.68 56.2053 426.904 56.348C427.122 56.4729 427.268 56.6506 427.344 56.881C427.425 57.1292 427.409 57.3798 427.296 57.6329C427.2 57.8802 427.089 58.2012 426.964 58.5958C426.641 59.3493 426.242 60.1673 425.766 61.0498C425.302 61.9087 424.817 62.7646 424.311 63.6175C423.99 64.135 423.705 64.4345 423.457 64.5159C423.262 64.5798 422.856 64.507 422.237 64.2975C421.272 63.9271 420.353 63.5214 419.482 63.0806C418.612 62.6398 417.809 62.1964 417.073 61.7504C416.726 61.5304 416.444 61.358 416.226 61.233C416.027 61.1023 415.886 60.9128 415.805 60.6647Z" fill="#69259D"/>
</svg>
