<svg width="1021" height="130" viewBox="0 0 1021 130" fill="none" xmlns="http://www.w3.org/2000/svg">
<path d="M19.75 92.4375C17.9583 89.0625 16.125 84.7917 14.25 79.625C12.375 74.4167 10.5833 68.8333 8.875 62.875C7.16667 56.9167 5.64583 51.0417 4.3125 45.25C2.97917 39.4167 1.91667 34.125 1.125 29.375C0.375 24.625 0 20.9167 0 18.25C0 17.1667 0.229167 16.3125 0.6875 15.6875C1.64583 14.3542 2.8125 12.9792 4.1875 11.5625C5.60417 10.1042 7.27083 8.58333 9.1875 7C9.8125 6.5 10.3958 6.25 10.9375 6.25C11.4792 6.25 12.0208 6.5 12.5625 7C14.5208 8.58333 16.1875 10.1042 17.5625 11.5625C18.9375 12.9792 20.1042 14.3542 21.0625 15.6875C21.5208 16.3125 21.75 17.2292 21.75 18.4375V18.1875C21.75 20.9375 22.1042 24.6667 22.8125 29.375C23.5625 34.0417 24.5208 39.1667 25.6875 44.75C26.8958 50.2917 28.1875 55.7708 29.5625 61.1875C30.9792 66.5625 32.375 71.3542 33.75 75.5625H34.125C36.375 69.9792 38.4792 63.9167 40.4375 57.375C42.3958 50.8333 44.2292 44.1458 45.9375 37.3125C47.6458 30.4792 49.25 23.8333 50.75 17.375C51.2083 15.5 51.9792 14.2083 53.0625 13.5C54.1875 12.75 55.9375 12.375 58.3125 12.375H65.8125C67.9375 12.375 69.5208 12.6875 70.5625 13.3125C71.6042 13.9375 72.3542 15.2917 72.8125 17.375C73.8958 22.2083 75.125 27.3125 76.5 32.6875C77.875 38.0625 79.2917 43.4167 80.75 48.75C82.25 54.0417 83.75 59 85.25 63.625C86.7917 68.25 88.25 72.2292 89.625 75.5625H90C91.75 71.6042 93.3125 66.9375 94.6875 61.5625C96.1042 56.1875 97.2917 50.7083 98.25 45.125C99.25 39.5 100 34.2917 100.5 29.5C101.042 24.7083 101.312 20.9375 101.312 18.1875V18.4375C101.312 17.2292 101.521 16.3125 101.938 15.6875C103.938 12.9375 106.688 10.0417 110.188 7C110.854 6.5 111.438 6.25 111.938 6.25C112.396 6.25 112.938 6.5 113.562 7C115.438 8.58333 117.042 10.1042 118.375 11.5625C119.708 12.9792 120.854 14.3542 121.812 15.6875C122.229 16.3542 122.438 17.25 122.438 18.375C122.438 21.875 122.042 26.0833 121.25 31C120.458 35.9167 119.375 41.1667 118 46.75C116.667 52.2917 115.146 57.8333 113.438 63.375C111.771 68.9167 110 74.1042 108.125 78.9375C106.292 83.7292 104.479 87.7917 102.688 91.125C101.188 93.9167 99.8333 95.8125 98.625 96.8125C97.4583 97.7708 95.7708 98.25 93.5625 98.25H85.875C84 98.25 82.4167 97.8333 81.125 97C79.875 96.1667 78.5625 94.6042 77.1875 92.3125C76.1458 90.5625 74.9375 88.1042 73.5625 84.9375C72.2292 81.7708 70.875 78.3333 69.5 74.625C68.1667 70.875 66.9583 67.25 65.875 63.75C64.7917 60.25 64 57.2917 63.5 54.875C62.9167 52.125 62.4167 49.4792 62 46.9375C61.625 44.3542 61.3958 42.3333 61.3125 40.875H60.8125C60.7292 42.3333 60.4583 44.3542 60 46.9375C59.5833 49.4792 59.0625 52.125 58.4375 54.875C57.8125 57.625 56.9792 60.7708 55.9375 64.3125C54.8958 67.8542 53.75 71.4167 52.5 75C51.25 78.5833 50 81.8958 48.75 84.9375C47.5 87.9792 46.3333 90.3958 45.25 92.1875C44.0417 94.2292 42.7083 95.75 41.25 96.75C39.8333 97.75 37.8542 98.25 35.3125 98.25H28.25C26.0417 98.25 24.375 97.8542 23.25 97.0625C22.125 96.2708 20.9583 94.7292 19.75 92.4375ZM122.438 18.1875V18.4375V18.375C122.438 18.2917 122.438 18.2292 122.438 18.1875ZM0 18.1875V18.25V18.4375V18.1875ZM161.625 99.8125C151.125 99.8125 142.812 97.0208 136.688 91.4375C130.562 85.8542 127.5 77.5417 127.5 66.5C127.5 55.1667 130.667 46.7083 137 41.125C143.375 35.5 151.875 32.6875 162.5 32.6875C172.75 32.6875 180.958 35.4583 187.125 41C193.292 46.5 196.375 54.625 196.375 65.375C196.375 76.5833 193.292 85.125 187.125 91C180.958 96.875 172.458 99.8125 161.625 99.8125ZM162.25 84.6875C166.833 84.6875 170.292 83.2708 172.625 80.4375C174.958 77.5625 176.125 72.6667 176.125 65.75C176.125 59.1667 174.938 54.5417 172.562 51.875C170.229 49.1667 166.75 47.8125 162.125 47.8125C157.667 47.8125 154.146 49.2708 151.562 52.1875C149.021 55.0625 147.75 59.75 147.75 66.25C147.75 73.0417 148.958 77.8125 151.375 80.5625C153.833 83.3125 157.458 84.6875 162.25 84.6875ZM229.562 46.125H229.812C232.938 37.4583 238.562 33.125 246.688 33.125C247.729 33.125 248.583 33.1875 249.25 33.3125C249.917 33.3958 250.375 33.4792 250.625 33.5625C251.25 33.7708 251.562 34.25 251.562 35V50.0625C251.562 51.3542 250.812 51.7083 249.312 51.125C248.812 50.9167 248.083 50.7083 247.125 50.5C246.208 50.25 244.917 50.125 243.25 50.125C238.958 50.125 235.604 51.7083 233.188 54.875C230.771 58 229.562 62.2708 229.562 67.6875V94.9375C229.562 96.1875 229.292 97.0625 228.75 97.5625C228.25 98.0208 227.375 98.25 226.125 98.25H213.25C212 98.25 211.104 98.0208 210.562 97.5625C210.062 97.0625 209.812 96.1875 209.812 94.9375V42.5625C209.812 41.5625 210.021 40.7917 210.438 40.25C211.312 39.0833 212.354 37.8958 213.562 36.6875C214.812 35.4792 216.333 34.1875 218.125 32.8125C218.458 32.5625 218.792 32.3958 219.125 32.3125C219.458 32.2292 219.75 32.1875 220 32.1875C220.583 32.1875 221.167 32.3958 221.75 32.8125C225.208 35.5208 227.625 37.8333 229 39.75C229.375 40.25 229.562 40.8333 229.562 41.5V46.125ZM280.688 94.9375C280.688 96.1875 280.417 97.0625 279.875 97.5625C279.375 98.0208 278.5 98.25 277.25 98.25H264.375C263.125 98.25 262.229 98.0208 261.688 97.5625C261.188 97.0625 260.938 96.1875 260.938 94.9375V10.375C260.938 9.375 261.146 8.60417 261.562 8.0625C263.312 5.77083 265.875 3.29167 269.25 0.625C269.833 0.208333 270.354 0 270.812 0C271.354 0 271.875 0.208333 272.375 0.625C274.167 2 275.667 3.29167 276.875 4.5C278.125 5.70833 279.188 6.89583 280.062 8.0625C280.479 8.60417 280.688 9.375 280.688 10.375V59.4375H281.438C287.771 59.4375 292.062 58.3125 294.312 56.0625C296.604 53.7708 297.75 50.6042 297.75 46.5625V43.1875C297.75 42.1875 297.958 41.4167 298.375 40.875C300.125 38.5833 302.688 36.1042 306.062 33.4375C306.646 33.0208 307.167 32.8125 307.625 32.8125C308.167 32.8125 308.688 33.0208 309.188 33.4375C310.979 34.8125 312.479 36.1042 313.688 37.3125C314.938 38.5208 316 39.7083 316.875 40.875C317.292 41.4167 317.5 42.1875 317.5 43.1875V46.5625C317.5 48.9375 317.021 51.5625 316.062 54.4375C315.146 57.3125 313.458 59.8542 311 62.0625C308.542 64.2708 305.042 65.5625 300.5 65.9375V66.25C304 67.7917 307.021 69.8333 309.562 72.375C312.104 74.9167 314.229 77.6458 315.938 80.5625C317.646 83.4375 318.958 86.2083 319.875 88.875C320.833 91.5 321.458 93.7292 321.75 95.5625C322.042 97.3542 321.438 98.25 319.938 98.25H303.5C302.083 98.25 301.271 97.3958 301.062 95.6875C300.771 93.7292 300.125 91.4375 299.125 88.8125C298.167 86.1458 296.854 83.5417 295.188 81C293.562 78.4583 291.583 76.3542 289.25 74.6875C286.958 72.9792 284.354 72.125 281.438 72.125H280.688V94.9375ZM385.812 98.25C381.521 98.25 378.25 97.7083 376 96.625C373.792 95.5417 372.292 93.7708 371.5 91.3125C370.75 88.8542 370.375 85.5833 370.375 81.5V25.375C370.375 21.2083 370.75 17.9167 371.5 15.5C372.292 13.0417 373.792 11.2917 376 10.25C378.25 9.16667 381.521 8.625 385.812 8.625H415.188C416.188 8.625 416.938 8.79167 417.438 9.125C418.521 9.875 419.646 10.7708 420.812 11.8125C421.979 12.8542 423.208 14.1042 424.5 15.5625C424.917 16.1042 425.125 16.5417 425.125 16.875C425.125 17.25 424.917 17.6667 424.5 18.125C423.208 19.5833 421.979 20.8333 420.812 21.875C419.646 22.9167 418.521 23.8125 417.438 24.5625C416.854 24.8958 416.104 25.0625 415.188 25.0625H397.688C394.938 25.0625 393.062 25.6458 392.062 26.8125C391.062 27.9792 390.562 29.9792 390.562 32.8125V44.9375H413C414 44.9375 414.75 45.1042 415.25 45.4375C416.333 46.1875 417.458 47.0833 418.625 48.125C419.792 49.1667 421.021 50.4167 422.312 51.875C422.729 52.4167 422.938 52.8542 422.938 53.1875C422.938 53.5625 422.729 53.9792 422.312 54.4375C421.021 55.8958 419.792 57.1458 418.625 58.1875C417.458 59.2292 416.333 60.125 415.25 60.875C414.667 61.2083 413.917 61.375 413 61.375H390.562V74C390.562 76.7917 391.062 78.7917 392.062 80C393.062 81.2083 394.938 81.8125 397.688 81.8125H417.25C418.25 81.8125 419 81.9792 419.5 82.3125C420.583 83.0625 421.708 83.9583 422.875 85C424.042 86.0417 425.271 87.2917 426.562 88.75C426.979 89.2917 427.188 89.7292 427.188 90.0625C427.188 90.4375 426.979 90.8542 426.562 91.3125C425.271 92.7708 424.042 94.0208 422.875 95.0625C421.708 96.1042 420.583 97 419.5 97.75C418.917 98.0833 418.167 98.25 417.25 98.25H385.812ZM465.812 76.5625C461.396 79.1042 458.333 81.875 456.625 84.875C454.917 87.875 454.062 91.5625 454.062 95.9375C454.062 96.8125 453.938 97.4167 453.688 97.75C453.438 98.0833 452.896 98.25 452.062 98.25H437.5C435.667 98.25 434.75 97.0625 434.75 94.6875C434.75 89.0208 435.896 83.9583 438.188 79.5C440.521 75.0417 444.604 71.0625 450.438 67.5625C446.021 65.1042 442.542 61.7708 440 57.5625C437.5 53.3542 436.25 48.8958 436.25 44.1875V43.1875C436.25 42.1875 436.458 41.4167 436.875 40.875C438.625 38.5833 441.188 36.1042 444.562 33.4375C445.146 33.0208 445.667 32.8125 446.125 32.8125C446.667 32.8125 447.188 33.0208 447.688 33.4375C449.479 34.8125 450.979 36.1042 452.188 37.3125C453.438 38.5208 454.5 39.7083 455.375 40.875C455.792 41.4167 456 42.1875 456 43.1875V44.1875C456 50.1458 459.458 54.75 466.375 58C469.542 56.25 471.771 54.2292 473.062 51.9375C474.396 49.6458 475.062 47.0625 475.062 44.1875V43.1875C475.062 42.1875 475.271 41.4167 475.688 40.875C477.354 38.5833 479.854 36.1042 483.188 33.4375C483.729 33.0208 484.229 32.8125 484.688 32.8125C485.229 32.8125 485.729 33.0208 486.188 33.4375C487.938 34.8125 489.417 36.1042 490.625 37.3125C491.833 38.5208 492.854 39.7083 493.688 40.875C494.104 41.4167 494.312 42.1875 494.312 43.1875V44.1875C494.312 49.3542 493.167 53.8125 490.875 57.5625C488.583 61.3125 485.583 64.4167 481.875 66.875C487.042 69.7917 490.812 73.6458 493.188 78.4375C495.562 83.1875 496.75 88.6042 496.75 94.6875C496.75 96.1042 496.583 97.0625 496.25 97.5625C495.917 98.0208 495.188 98.25 494.062 98.25H479.188C477.729 98.25 477 97.25 477 95.25C477 92.5417 476.729 90.125 476.188 88C475.688 85.875 474.646 83.8958 473.062 82.0625C471.479 80.1875 469.062 78.3542 465.812 76.5625ZM549.375 32.6875C555.458 32.6875 560.458 34.0625 564.375 36.8125C568.333 39.5208 571.271 43.2708 573.188 48.0625C575.146 52.8125 576.125 58.2708 576.125 64.4375C576.125 71.1042 574.979 77.1042 572.688 82.4375C570.438 87.7708 567.104 92 562.688 95.125C558.271 98.25 552.792 99.8125 546.25 99.8125C542.875 99.8125 540.083 99.4167 537.875 98.625C535.708 97.875 533.958 96.9792 532.625 95.9375C531.333 94.8542 530.312 93.875 529.562 93H529.312V119.625C529.312 120.625 529.104 121.396 528.688 121.938C526.938 124.229 524.375 126.708 521 129.375C520.417 129.792 519.896 130 519.438 130C518.938 130 518.417 129.792 517.875 129.375C516.083 128 514.562 126.708 513.312 125.5C512.104 124.292 511.062 123.104 510.188 121.938C509.771 121.396 509.562 120.625 509.562 119.625V42.5625C509.562 41.5625 509.771 40.7917 510.188 40.25C511.062 39.0833 512.104 37.8958 513.312 36.6875C514.562 35.4792 516.083 34.1875 517.875 32.8125C518.417 32.3958 518.979 32.1875 519.562 32.1875C520.104 32.1875 520.667 32.3958 521.25 32.8125C523 34.1875 524.5 35.5 525.75 36.75C527 38 528.104 39.2917 529.062 40.625H529.375C530.083 39.75 531.167 38.6875 532.625 37.4375C534.083 36.1875 536.146 35.0833 538.812 34.125C541.521 33.1667 545.042 32.6875 549.375 32.6875ZM541.688 83.875C546.188 83.875 549.667 82.3125 552.125 79.1875C554.625 76.0208 555.875 71.4583 555.875 65.5C555.875 54.25 551.25 48.625 542 48.625C538.083 48.625 535.188 49.4375 533.312 51.0625C531.438 52.6458 530.104 54.3333 529.312 56.125V69.6875C529.312 73.7292 530.354 77.1042 532.438 79.8125C534.521 82.5208 537.604 83.875 541.688 83.875ZM620.938 99.8125C613.896 99.8125 607.771 98.6875 602.562 96.4375C597.354 94.1458 593.312 90.6042 590.438 85.8125C587.562 81.0208 586.125 74.8333 586.125 67.25C586.125 55.875 589.042 47.2708 594.875 41.4375C600.708 35.6042 608.458 32.6875 618.125 32.6875C624.417 32.6875 629.729 33.8125 634.062 36.0625C638.438 38.3125 641.75 41.4167 644 45.375C646.292 49.3333 647.438 53.8542 647.438 58.9375C647.438 63.8958 646.167 67.3542 643.625 69.3125C641.083 71.2708 637.375 72.25 632.5 72.25H605.688C606.021 76.5417 607.583 79.8125 610.375 82.0625C613.208 84.3125 617.042 85.4375 621.875 85.4375C625.708 85.4375 628.771 84.875 631.062 83.75C633.396 82.5833 635.021 81.6667 635.938 81C636.729 80.4167 637.625 80.1458 638.625 80.1875C639.417 80.1875 640.542 80.3542 642 80.6875C643.5 80.9792 644.979 81.5417 646.438 82.375C647.479 82.9167 648 83.6667 648 84.625C648 85.1667 647.896 85.9375 647.688 86.9375C647.562 87.5208 647.354 88.375 647.062 89.5C646.771 90.5833 646.396 91.6042 645.938 92.5625C645.688 93.0208 645.292 93.4583 644.75 93.875C643.917 94.4583 642.562 95.2292 640.688 96.1875C638.854 97.1458 636.333 97.9792 633.125 98.6875C629.917 99.4375 625.854 99.8125 620.938 99.8125ZM605.562 59.4375H625.938C628.062 59.4375 629.125 58.4583 629.125 56.5C629.125 53.5417 628.188 51.0625 626.312 49.0625C624.479 47.0208 621.708 46 618 46C613.958 46 610.979 47.2917 609.062 49.875C607.188 52.4583 606.021 55.6458 605.562 59.4375ZM680.938 46.125H681.188C684.312 37.4583 689.938 33.125 698.062 33.125C699.104 33.125 699.958 33.1875 700.625 33.3125C701.292 33.3958 701.75 33.4792 702 33.5625C702.625 33.7708 702.938 34.25 702.938 35V50.0625C702.938 51.3542 702.188 51.7083 700.688 51.125C700.188 50.9167 699.458 50.7083 698.5 50.5C697.583 50.25 696.292 50.125 694.625 50.125C690.333 50.125 686.979 51.7083 684.562 54.875C682.146 58 680.938 62.2708 680.938 67.6875V94.9375C680.938 96.1875 680.667 97.0625 680.125 97.5625C679.625 98.0208 678.75 98.25 677.5 98.25H664.625C663.375 98.25 662.479 98.0208 661.938 97.5625C661.438 97.0625 661.188 96.1875 661.188 94.9375V42.5625C661.188 41.5625 661.396 40.7917 661.812 40.25C662.688 39.0833 663.729 37.8958 664.938 36.6875C666.188 35.4792 667.708 34.1875 669.5 32.8125C669.833 32.5625 670.167 32.3958 670.5 32.3125C670.833 32.2292 671.125 32.1875 671.375 32.1875C671.958 32.1875 672.542 32.3958 673.125 32.8125C676.583 35.5208 679 37.8333 680.375 39.75C680.75 40.25 680.938 40.8333 680.938 41.5V46.125ZM709.438 13.25C709.438 12.7083 709.604 12.2292 709.938 11.8125C710.271 11.3958 710.708 10.8542 711.25 10.1875C712.417 8.85417 713.771 7.45833 715.312 6C716.854 4.5 718.417 3.0625 720 1.6875C721 0.895833 721.75 0.5 722.25 0.5C722.75 0.5 723.521 0.895833 724.562 1.6875C727.938 4.60417 730.812 7.4375 733.188 10.1875C733.729 10.8125 734.167 11.3542 734.5 11.8125C734.875 12.2292 735.062 12.7083 735.062 13.25C735.062 13.7917 734.875 14.2708 734.5 14.6875C734.167 15.1042 733.708 15.6667 733.125 16.375C732 17.6667 730.688 19.0625 729.188 20.5625C727.688 22.0208 726.146 23.4167 724.562 24.75C723.979 25.25 723.521 25.5833 723.188 25.75C722.854 25.875 722.542 25.9375 722.25 25.9375C721.958 25.9375 721.646 25.875 721.312 25.75C721.021 25.5833 720.542 25.25 719.875 24.75C718.208 23.4167 716.646 22.0208 715.188 20.5625C713.729 19.0625 712.417 17.625 711.25 16.25C710.708 15.5833 710.271 15.0625 709.938 14.6875C709.604 14.2708 709.438 13.7917 709.438 13.25ZM732.062 94.9375C732.062 96.1875 731.792 97.0625 731.25 97.5625C730.75 98.0208 729.875 98.25 728.625 98.25H715.75C714.5 98.25 713.604 98.0208 713.062 97.5625C712.562 97.0625 712.312 96.1875 712.312 94.9375V37.5625C712.312 36.3125 712.562 35.4583 713.062 35C713.604 34.5 714.5 34.25 715.75 34.25H728.625C729.875 34.25 730.75 34.5 731.25 35C731.792 35.4583 732.062 36.3125 732.062 37.5625V94.9375ZM780.438 99.8125C773.396 99.8125 767.271 98.6875 762.062 96.4375C756.854 94.1458 752.812 90.6042 749.938 85.8125C747.062 81.0208 745.625 74.8333 745.625 67.25C745.625 55.875 748.542 47.2708 754.375 41.4375C760.208 35.6042 767.958 32.6875 777.625 32.6875C783.917 32.6875 789.229 33.8125 793.562 36.0625C797.938 38.3125 801.25 41.4167 803.5 45.375C805.792 49.3333 806.938 53.8542 806.938 58.9375C806.938 63.8958 805.667 67.3542 803.125 69.3125C800.583 71.2708 796.875 72.25 792 72.25H765.188C765.521 76.5417 767.083 79.8125 769.875 82.0625C772.708 84.3125 776.542 85.4375 781.375 85.4375C785.208 85.4375 788.271 84.875 790.562 83.75C792.896 82.5833 794.521 81.6667 795.438 81C796.229 80.4167 797.125 80.1458 798.125 80.1875C798.917 80.1875 800.042 80.3542 801.5 80.6875C803 80.9792 804.479 81.5417 805.938 82.375C806.979 82.9167 807.5 83.6667 807.5 84.625C807.5 85.1667 807.396 85.9375 807.188 86.9375C807.062 87.5208 806.854 88.375 806.562 89.5C806.271 90.5833 805.896 91.6042 805.438 92.5625C805.188 93.0208 804.792 93.4583 804.25 93.875C803.417 94.4583 802.062 95.2292 800.188 96.1875C798.354 97.1458 795.833 97.9792 792.625 98.6875C789.417 99.4375 785.354 99.8125 780.438 99.8125ZM765.062 59.4375H785.438C787.562 59.4375 788.625 58.4583 788.625 56.5C788.625 53.5417 787.688 51.0625 785.812 49.0625C783.979 47.0208 781.208 46 777.5 46C773.458 46 770.479 47.2917 768.562 49.875C766.688 52.4583 765.521 55.6458 765.062 59.4375ZM882.562 58.4375V94.9375C882.562 96.1875 882.292 97.0625 881.75 97.5625C881.25 98.0208 880.375 98.25 879.125 98.25H866.25C865 98.25 864.104 98.0208 863.562 97.5625C863.062 97.0625 862.812 96.1875 862.812 94.9375V61.6875C862.812 57.1458 861.854 53.8333 859.938 51.75C858.021 49.6667 855.417 48.625 852.125 48.625C848.833 48.625 846.292 49.3333 844.5 50.75C842.75 52.1667 841.396 53.9583 840.438 56.125V94.9375C840.438 96.1875 840.167 97.0625 839.625 97.5625C839.125 98.0208 838.25 98.25 837 98.25H824.125C822.875 98.25 821.979 98.0208 821.438 97.5625C820.938 97.0625 820.688 96.1875 820.688 94.9375V42.5625C820.688 41.5625 820.896 40.7917 821.312 40.25C822.188 39.0833 823.229 37.8958 824.438 36.6875C825.688 35.4792 827.208 34.1875 829 32.8125C829.542 32.3958 830.062 32.1875 830.562 32.1875C831.021 32.1875 831.542 32.3958 832.125 32.8125C833.875 34.1875 835.375 35.5 836.625 36.75C837.875 38 838.979 39.2917 839.938 40.625H840.25C840.958 39.7083 842.021 38.6458 843.438 37.4375C844.854 36.1875 846.833 35.0833 849.375 34.125C851.958 33.1667 855.25 32.6875 859.25 32.6875C863.167 32.6875 866.896 33.4792 870.438 35.0625C873.979 36.6458 876.875 39.3125 879.125 43.0625C881.417 46.8125 882.562 51.9375 882.562 58.4375ZM931.312 32.6875C936.271 32.6875 939.875 33.1042 942.125 33.9375C944.375 34.7292 945.792 35.3542 946.375 35.8125C947.292 36.3958 948 37.1458 948.5 38.0625C948.792 38.5208 949.125 39.3125 949.5 40.4375C949.875 41.5625 950.146 42.7917 950.312 44.125C950.521 45.1667 950.542 45.9167 950.375 46.375C950.208 46.7917 949.688 47.3125 948.812 47.9375C947.812 48.6042 946.708 49.2083 945.5 49.75C944.333 50.25 943.375 50.6042 942.625 50.8125C942 50.9792 941.521 51.0208 941.188 50.9375C940.854 50.8542 940.396 50.6042 939.812 50.1875C939.146 49.7292 938.208 49.2292 937 48.6875C935.792 48.1042 934.125 47.8125 932 47.8125C929.292 47.8125 926.708 48.4792 924.25 49.8125C921.833 51.1458 919.854 53.1458 918.312 55.8125C916.812 58.4792 916.062 61.8125 916.062 65.8125C916.062 71.8125 917.625 76.4583 920.75 79.75C923.917 83.0417 928.146 84.6875 933.438 84.6875C936.146 84.6875 938.396 84.4167 940.188 83.875C941.979 83.2917 943.396 82.7083 944.438 82.125C945.271 81.6667 945.896 81.5625 946.312 81.8125C946.771 82.0208 947.125 82.4167 947.375 83L951.938 93.3125C952.396 94.3958 952.146 95.1667 951.188 95.625C949.646 96.4167 947.104 97.3125 943.562 98.3125C940.021 99.3125 935.646 99.8125 930.438 99.8125C919.979 99.8125 911.625 97.0417 905.375 91.5C899.125 85.9167 896 77.5833 896 66.5C896 59.4167 897.438 53.3542 900.312 48.3125C903.188 43.2708 907.271 39.4167 912.562 36.75C917.854 34.0417 924.104 32.6875 931.312 32.6875ZM993.562 99.8125C986.521 99.8125 980.396 98.6875 975.188 96.4375C969.979 94.1458 965.938 90.6042 963.062 85.8125C960.188 81.0208 958.75 74.8333 958.75 67.25C958.75 55.875 961.667 47.2708 967.5 41.4375C973.333 35.6042 981.083 32.6875 990.75 32.6875C997.042 32.6875 1002.35 33.8125 1006.69 36.0625C1011.06 38.3125 1014.38 41.4167 1016.62 45.375C1018.92 49.3333 1020.06 53.8542 1020.06 58.9375C1020.06 63.8958 1018.79 67.3542 1016.25 69.3125C1013.71 71.2708 1010 72.25 1005.12 72.25H978.312C978.646 76.5417 980.208 79.8125 983 82.0625C985.833 84.3125 989.667 85.4375 994.5 85.4375C998.333 85.4375 1001.4 84.875 1003.69 83.75C1006.02 82.5833 1007.65 81.6667 1008.56 81C1009.35 80.4167 1010.25 80.1458 1011.25 80.1875C1012.04 80.1875 1013.17 80.3542 1014.62 80.6875C1016.12 80.9792 1017.6 81.5417 1019.06 82.375C1020.1 82.9167 1020.62 83.6667 1020.62 84.625C1020.62 85.1667 1020.52 85.9375 1020.31 86.9375C1020.19 87.5208 1019.98 88.375 1019.69 89.5C1019.4 90.5833 1019.02 91.6042 1018.56 92.5625C1018.31 93.0208 1017.92 93.4583 1017.38 93.875C1016.54 94.4583 1015.19 95.2292 1013.31 96.1875C1011.48 97.1458 1008.96 97.9792 1005.75 98.6875C1002.54 99.4375 998.479 99.8125 993.562 99.8125ZM978.188 59.4375H998.562C1000.69 59.4375 1001.75 58.4583 1001.75 56.5C1001.75 53.5417 1000.81 51.0625 998.938 49.0625C997.104 47.0208 994.333 46 990.625 46C986.583 46 983.604 47.2917 981.688 49.875C979.812 52.4583 978.646 55.6458 978.188 59.4375Z" fill="#FBE4B4"/>
</svg>
