<svg width="43" height="43" viewBox="0 0 43 43" fill="none" xmlns="http://www.w3.org/2000/svg">
<path d="M31.6782 17.6992C32.203 17.1744 32.203 16.3235 31.6782 15.7987C31.1535 15.274 30.3026 15.274 29.7778 15.7987L31.6782 17.6992ZM17.0832 28.4934C16.5584 29.0182 16.5584 29.869 17.0832 30.3938C17.608 30.9185 18.4588 30.9185 18.9836 30.3938L17.0832 28.4934ZM28.5045 12.6251C27.9797 12.1004 27.129 12.1004 26.6042 12.6251C26.0795 13.1499 26.0795 14.0006 26.6042 14.5254L28.5045 12.6251ZM20.4114 8.33483C20.9381 8.85745 21.789 8.85423 22.3116 8.3273C22.8344 7.80055 22.831 6.94969 22.3042 6.42706L20.4114 8.33483ZM21.0994 30.6092L10.5204 20.0303L8.62009 21.9307L19.1989 32.5095L21.0994 30.6092ZM31.8936 30.6092C30.3707 32.1321 29.322 33.1767 28.4301 33.8572C27.5692 34.5141 27.014 34.7039 26.4964 34.7039V37.3914C27.838 37.3914 28.9603 36.8331 30.0604 35.9939C31.1293 35.1783 32.3247 33.9788 33.794 32.5095L31.8936 30.6092ZM19.1989 32.5095C20.6683 33.9788 21.8637 35.1783 22.9326 35.9939C24.0325 36.8331 25.155 37.3914 26.4964 37.3914V34.7039C25.9788 34.7039 25.4237 34.5141 24.5628 33.8572C23.6709 33.1767 22.6223 32.1321 21.0994 30.6092L19.1989 32.5095ZM31.8936 19.8149C33.4165 21.3378 34.4612 22.3865 35.1417 23.2784C35.7985 24.1393 35.9883 24.6944 35.9883 25.212H38.6758C38.6758 23.8706 38.1175 22.7481 37.2783 21.6482C36.4627 20.5793 35.2632 19.3837 33.794 17.9145L31.8936 19.8149ZM33.794 32.5095C35.2632 31.0403 36.4627 29.8448 37.2783 28.7759C38.1175 27.6759 38.6758 26.5535 38.6758 25.212H35.9883C35.9883 25.7297 35.7985 26.2848 35.1417 27.1457C34.4612 28.0376 33.4165 29.0862 31.8936 30.6092L33.794 32.5095ZM10.5204 9.23603C12.0434 7.71312 13.092 6.6684 13.9839 5.98792C14.8448 5.3311 15.4 5.14136 15.9176 5.14136V2.45386C14.5761 2.45386 13.4537 3.01214 12.3537 3.85136C11.2848 4.66693 10.0893 5.86645 8.62009 7.33561L10.5204 9.23603ZM8.62009 7.33561C7.15087 8.80496 5.95137 10.0004 5.13578 11.0693C4.29655 12.1693 3.73828 13.2916 3.73828 14.6332H6.42578C6.42578 14.1156 6.61555 13.5604 7.2724 12.6995C7.95291 11.8076 8.9975 10.759 10.5204 9.23603L8.62009 7.33561ZM10.5204 20.0303C8.9975 18.5074 7.95291 17.4587 7.2724 16.5668C6.61555 15.7059 6.42578 15.1509 6.42578 14.6332H3.73828C3.73828 15.9747 4.29655 17.0971 5.13578 18.1971C5.95137 19.266 7.15087 20.4614 8.62009 21.9307L10.5204 20.0303ZM29.7778 15.7987L17.0832 28.4934L18.9836 30.3938L31.6782 17.6992L29.7778 15.7987ZM26.6042 14.5254L31.8936 19.8149L33.794 17.9145L28.5045 12.6251L26.6042 14.5254ZM22.3042 6.42706C21.111 5.24313 20.0889 4.26631 19.1294 3.59336C18.1377 2.89765 17.1133 2.45386 15.9176 2.45386V5.14136C16.3831 5.14136 16.8749 5.29472 17.5861 5.79353C18.3296 6.31508 19.197 7.12993 20.4114 8.33483L22.3042 6.42706Z" fill="#FFF2D6"/>
</svg>
