<svg width="39" height="39" viewBox="0 0 39 39" fill="none" xmlns="http://www.w3.org/2000/svg">
<path d="M25.546 7.39121C23.8108 9.99068 20.3889 12.6786 16.7598 14.699C13.1307 16.7194 9.00487 18.2334 5.80263 18.3826L5.47397 18.398L11.4032 28.3006L11.5685 28.2309C12.7037 27.7547 13.8643 27.1908 15.0116 26.5521C16.8366 25.5361 18.5021 24.4056 19.8998 23.2398L19.9614 23.1887L19.9684 23.1111C20.0257 22.5022 20.3575 21.9471 20.9141 21.6372C21.8547 21.1139 23.1086 21.4719 23.7018 22.4626C24.295 23.4533 23.9896 24.6794 23.0492 25.2032C22.7429 25.3737 22.4042 25.449 22.0656 25.4413L21.9883 25.4397L21.9302 25.4888C20.3908 26.7805 18.5601 28.0274 16.5612 29.1402C15.4628 29.7517 14.3174 30.3173 13.1647 30.8133L12.9604 30.9013L15.2264 34.6859L15.2537 34.7087C15.3279 34.7702 15.4564 34.8272 15.6216 34.8748C15.7943 34.9245 16.0279 34.9691 16.3292 34.9925C16.8568 35.0335 17.5981 35.011 18.5972 34.8359L19.0416 34.7516C21.4025 34.2668 24.1962 33.1644 26.9111 31.653C29.4561 30.2361 31.7125 28.5816 33.3159 26.9557L33.6279 26.6312C34.4679 25.7322 34.942 25.0131 35.2014 24.4861C35.331 24.2227 35.4078 24.0054 35.4494 23.8364C35.4892 23.6746 35.5011 23.5385 35.4829 23.4457L35.4287 23.1709L35.3561 23.2113L25.7241 7.12445L25.546 7.39121ZM6.07791 25.4394C4.97118 26.4679 4.26672 27.3522 3.84461 28.0367C3.63372 28.3787 3.49157 28.6731 3.40535 28.9124C3.32166 29.1448 3.28284 29.3466 3.3019 29.4939L3.31382 29.5823L3.38959 29.6328C3.54221 29.7359 3.89882 29.8566 4.49024 29.8959C5.01628 29.9308 5.74421 29.9029 6.71297 29.732L7.14242 29.6494C7.5542 29.5649 7.97957 29.461 8.41368 29.3404L8.66065 29.2722L6.26268 25.2673L6.07791 25.4394ZM12.0793 6.88175C9.53403 8.29872 7.27704 9.95341 5.67358 11.5796L5.36211 11.9049C4.55173 12.7721 4.08202 13.4713 3.81701 13.9928C3.55607 14.5064 3.48497 14.8652 3.50042 15.0449L3.50787 15.1391L3.58921 15.1932C3.74284 15.2959 4.10017 15.4151 4.69192 15.454C5.21775 15.4886 5.94418 15.4605 6.91109 15.2899L7.34019 15.2086C9.70108 14.7238 12.4952 13.6223 15.2102 12.1108C17.7552 10.6939 20.0111 9.0387 21.6145 7.41265L21.9265 7.08815C22.7371 6.22069 23.2069 5.52047 23.4719 4.99892C23.7327 4.48565 23.8036 4.1278 23.7882 3.94814L23.7802 3.85315L23.6994 3.79984C23.5458 3.69712 23.1887 3.5766 22.597 3.5377C22.0713 3.50314 21.3446 3.5313 20.3779 3.7018L19.9484 3.78448C17.5876 4.26924 14.794 5.37043 12.0793 6.88175ZM10.2404 31.9106L10.0846 31.9583C7.99376 32.6058 6.01256 32.9363 4.38377 32.8095C2.75749 32.6827 1.51233 32.1045 0.828508 30.9625C0.214166 29.9365 0.216236 28.6952 0.841905 27.2931C1.46913 25.8875 2.71684 24.3377 4.55975 22.7309L4.68092 22.6255L1.02577 16.5209C-0.0083585 14.7935 0.763542 12.6248 2.65636 10.3994C4.53626 8.18926 7.46164 6.0016 10.5296 4.29361C13.5975 2.58571 17.0243 1.23702 19.9492 0.772247C22.8944 0.304255 25.2279 0.744016 26.2623 2.47133L37.9637 22.0143L38.0558 22.1776C38.9489 23.8775 38.1674 25.9807 36.3336 28.1366C34.4538 30.3466 31.5285 32.5332 28.4607 34.2411C25.3928 35.9491 21.9658 37.299 19.0408 37.7638C16.0955 38.2318 13.7615 37.7914 12.7272 36.0639L10.2404 31.9106Z" fill="#FFF2D6" stroke="#69259D" stroke-width="0.4"/>
</svg>
