<svg width="1099" height="152" viewBox="0 0 1099 152" fill="none" xmlns="http://www.w3.org/2000/svg">
<path d="M47.7199 99.3976C46.1966 99.3976 44.9077 98.9625 43.8531 98.0924C42.7399 97.2222 41.4217 95.9839 39.8984 94.3775C38.3751 92.7711 36.6761 90.7965 34.8013 88.4538C34.0982 87.5167 33.7467 86.6801 33.7467 85.9438C33.7467 85.2075 34.0982 84.3708 34.8013 83.4337C38.4337 78.7483 41.7439 75.3012 44.7319 73.0924C45.435 72.5569 46.431 72.2892 47.7199 72.2892C51.7039 72.2892 55.1313 70.5823 58.0021 67.1687C60.9315 63.755 62.3376 58.2329 62.2204 50.6024C62.1618 42.3695 60.3749 36.6131 56.8596 33.3333C53.4029 30.0536 48.6573 28.4137 42.6228 28.4137H38.4044C34.5376 28.4137 31.9012 29.3507 30.495 31.2249C29.0889 33.0991 28.3859 36.3119 28.3859 40.8635V142.169C28.3859 144.177 28.0051 145.582 27.2434 146.386C26.5404 147.122 25.31 147.49 23.5524 147.49H4.83351C3.07587 147.49 1.81623 147.122 1.05458 146.386C0.351528 145.582 0 144.177 0 142.169V30.4217C0 23.7282 0.527292 18.4404 1.58188 14.5582C2.69505 10.6091 4.80421 7.79786 7.90938 6.1245C11.0731 4.3842 15.6723 3.51406 21.7068 3.51406H42.6228C59.4375 3.51406 71.8874 7.29585 79.9726 14.8594C88.0577 22.3561 92.1003 33.8688 92.1003 49.3976C92.1003 61.0442 89.9618 70.5489 85.6849 77.9117C81.4666 85.2744 75.9593 90.6961 69.1631 94.1767C62.4255 97.6573 55.2778 99.3976 47.7199 99.3976Z" fill="url(#paint0_linear_164_320)"/>
<path d="M165.482 150C153.295 150 142.691 147.323 133.668 141.968C124.646 136.613 117.645 128.548 112.665 117.771C107.743 106.995 105.283 93.5408 105.283 77.4096C105.283 51.7738 110.761 32.664 121.717 20.0803C132.672 7.42972 147.935 1.10442 167.503 1.10442C185.841 1.10442 200.342 7.29585 211.005 19.6787C221.668 31.9946 226.999 50.2677 226.999 74.498C226.999 91.6332 224.509 105.79 219.529 116.968C214.549 128.079 207.46 136.379 198.262 141.867C189.063 147.289 178.137 150 165.482 150ZM166.009 122.892C176.555 122.892 184.376 118.574 189.474 109.94C194.571 101.305 197.119 90.0937 197.119 76.3052C197.119 60.3079 194.717 48.2932 189.913 40.261C185.109 32.2289 177.375 28.2129 166.712 28.2129C145.679 28.2129 135.162 44.0428 135.162 75.7028C135.162 89.826 137.682 101.238 142.72 109.94C147.817 118.574 155.58 122.892 166.009 122.892Z" fill="url(#paint1_linear_164_320)"/>
<path d="M283.156 149.9C275.715 149.9 269.534 149.13 264.613 147.59C259.75 146.051 255.824 144.143 252.836 141.867C249.907 139.525 247.651 137.216 246.07 134.94C245.542 134.07 245.074 133.233 244.663 132.43C244.253 131.627 243.96 130.723 243.785 129.719C243.55 128.38 243.316 126.64 243.082 124.498C242.847 122.289 242.818 119.746 242.994 116.867C243.052 115.663 243.257 114.826 243.609 114.357C244.019 113.822 244.693 113.42 245.63 113.153C247.329 112.684 249.526 112.282 252.221 111.948C254.975 111.546 256.938 111.345 258.109 111.345C259.34 111.345 260.336 111.613 261.097 112.149C261.859 112.684 262.767 113.588 263.822 114.859C264.993 116.265 267.015 118.072 269.886 120.281C272.756 122.423 277.18 123.494 283.156 123.494C288.897 123.494 293.233 122.122 296.162 119.378C299.092 116.633 300.556 112.818 300.556 107.932C300.556 105.321 299.853 102.878 298.447 100.602C297.1 98.2597 294.61 95.9505 290.977 93.6747C287.345 91.332 282.16 88.8889 275.422 86.3454C264.29 82.0616 256.264 76.7403 251.342 70.3815C246.421 64.0228 243.96 55.1874 243.96 43.8755C243.96 34.5047 245.952 26.6734 249.936 20.3815C253.92 14.0897 259.428 9.33735 266.458 6.1245C273.489 2.91165 281.603 1.30522 290.801 1.30522C297.891 1.30522 303.749 2.27577 308.378 4.21687C313.065 6.09103 316.697 8.23293 319.275 10.6426C321.853 12.9853 323.523 14.8929 324.284 16.3655C324.753 17.2356 325.046 17.905 325.163 18.3735C325.339 18.7751 325.456 19.344 325.515 20.0803C325.691 22.1553 325.749 24.4645 325.691 27.008C325.632 29.5515 325.427 32.4297 325.075 35.6426C324.9 36.7135 324.577 37.4498 324.109 37.8514C323.699 38.1861 323.054 38.3534 322.175 38.3534C316.492 38.4873 312.098 38.1526 308.993 37.3494C307.763 37.0147 306.942 36.6801 306.532 36.3454C306.122 36.0107 305.595 35.4752 304.95 34.739C304.013 33.4672 302.519 31.9946 300.468 30.3213C298.476 28.581 295.254 27.7108 290.801 27.7108C284.65 27.7108 280.285 29.3173 277.707 32.5301C275.129 35.676 273.84 39.2236 273.84 43.1727C273.84 47.8581 275.744 51.5395 279.553 54.2169C283.361 56.8273 289.366 59.8059 297.568 63.1526C304.423 65.8969 310.311 68.8755 315.233 72.0884C320.154 75.3012 323.904 79.4177 326.482 84.4378C329.118 89.4578 330.436 96.0843 330.436 104.317C330.436 114.558 328.356 123.059 324.197 129.819C320.095 136.58 314.471 141.633 307.323 144.98C300.234 148.26 292.178 149.9 283.156 149.9Z" fill="url(#paint2_linear_164_320)"/>
<path d="M406.015 142.169C406.015 144.177 405.634 145.582 404.872 146.386C404.169 147.122 402.939 147.49 401.181 147.49H382.462C380.705 147.49 379.445 147.122 378.683 146.386C377.98 145.582 377.629 144.177 377.629 142.169V29.9197H351.44C350.034 29.9197 348.979 29.6519 348.276 29.1165C346.753 27.9116 345.171 26.4726 343.531 24.7992C341.949 23.1258 340.22 21.1178 338.346 18.7751C337.76 17.905 337.467 17.2021 337.467 16.6667C337.467 16.0643 337.76 15.3949 338.346 14.6586C340.22 12.3159 341.949 10.3079 343.531 8.63454C345.171 6.96118 346.753 5.52209 348.276 4.31727C349.096 3.78179 350.151 3.51406 351.44 3.51406H432.291C433.697 3.51406 434.752 3.78179 435.455 4.31727C436.978 5.52209 438.56 6.96118 440.201 8.63454C441.841 10.3079 443.57 12.3159 445.386 14.6586C445.972 15.5288 446.265 16.2316 446.265 16.7671C446.265 17.3695 445.972 18.0388 445.386 18.7751C443.57 21.1178 441.841 23.1258 440.201 24.7992C438.56 26.4726 436.978 27.9116 435.455 29.1165C434.635 29.6519 433.58 29.9197 432.291 29.9197H406.015V142.169Z" fill="url(#paint3_linear_164_320)"/>
<path d="M564.114 150C551.928 150 541.324 147.323 532.301 141.968C523.279 136.613 516.277 128.548 511.297 117.771C506.376 106.995 503.915 93.5408 503.915 77.4096C503.915 51.7738 509.393 32.664 520.349 20.0803C531.305 7.42972 546.567 1.10442 566.136 1.10442C584.474 1.10442 598.974 7.29585 609.637 19.6787C620.3 31.9946 625.632 50.2677 625.632 74.498C625.632 91.6332 623.142 105.79 618.162 116.968C613.182 128.079 606.093 136.379 596.894 141.867C587.696 147.289 576.769 150 564.114 150ZM564.642 122.892C575.187 122.892 583.009 118.574 588.106 109.94C593.203 101.305 595.752 90.0937 595.752 76.3052C595.752 60.3079 593.35 48.2932 588.546 40.261C583.741 32.2289 576.008 28.2129 565.345 28.2129C544.312 28.2129 533.795 44.0428 533.795 75.7028C533.795 89.826 536.314 101.238 541.353 109.94C546.45 118.574 554.213 122.892 564.642 122.892Z" fill="url(#paint4_linear_164_320)"/>
<path d="M676.076 42.3695V65.261H707.274C708.68 65.261 709.735 65.5288 710.438 66.0643C711.961 67.2691 713.543 68.7082 715.183 70.3815C716.824 72.0549 718.552 74.0629 720.368 76.4056C720.954 77.2758 721.247 77.9786 721.247 78.5141C721.247 79.1165 720.954 79.7858 720.368 80.5221C718.552 82.8648 716.824 84.8728 715.183 86.5462C713.543 88.2195 711.961 89.6586 710.438 90.8635C709.618 91.3989 708.563 91.6667 707.274 91.6667H676.076V142.169C676.076 144.177 675.695 145.582 674.933 146.386C674.23 147.122 673 147.49 671.242 147.49H652.524C650.766 147.49 649.506 147.122 648.745 146.386C648.042 145.582 647.69 144.177 647.69 142.169V30.4217C647.69 23.7282 648.217 18.4404 649.272 14.5582C650.385 10.6091 652.494 7.79786 655.599 6.1245C658.763 4.3842 663.362 3.51406 669.397 3.51406H710.877C712.283 3.51406 713.338 3.78179 714.041 4.31727C715.564 5.52209 717.146 6.96118 718.787 8.63454C720.427 10.3079 722.155 12.3159 723.972 14.6586C724.557 15.5288 724.85 16.2316 724.85 16.7671C724.85 17.3695 724.557 18.0388 723.972 18.7751C722.155 21.1178 720.427 23.1258 718.787 24.7992C717.146 26.4726 715.564 27.9116 714.041 29.1165C713.221 29.6519 712.166 29.9197 710.877 29.9197H686.094C682.228 29.9197 679.591 30.8568 678.185 32.7309C676.779 34.6051 676.076 37.8179 676.076 42.3695Z" fill="url(#paint5_linear_164_320)"/>
<path d="M771.34 42.3695V65.261H802.538C803.944 65.261 804.999 65.5288 805.702 66.0643C807.225 67.2691 808.807 68.7082 810.448 70.3815C812.088 72.0549 813.816 74.0629 815.633 76.4056C816.218 77.2758 816.511 77.9786 816.511 78.5141C816.511 79.1165 816.218 79.7858 815.633 80.5221C813.816 82.8648 812.088 84.8728 810.448 86.5462C808.807 88.2195 807.225 89.6586 805.702 90.8635C804.882 91.3989 803.827 91.6667 802.538 91.6667H771.34V142.169C771.34 144.177 770.959 145.582 770.198 146.386C769.495 147.122 768.264 147.49 766.507 147.49H747.788C746.03 147.49 744.77 147.122 744.009 146.386C743.306 145.582 742.954 144.177 742.954 142.169V30.4217C742.954 23.7282 743.481 18.4404 744.536 14.5582C745.649 10.6091 747.758 7.79786 750.864 6.1245C754.027 4.3842 758.626 3.51406 764.661 3.51406H806.141C807.547 3.51406 808.602 3.78179 809.305 4.31727C810.828 5.52209 812.41 6.96118 814.051 8.63454C815.691 10.3079 817.419 12.3159 819.236 14.6586C819.822 15.5288 820.115 16.2316 820.115 16.7671C820.115 17.3695 819.822 18.0388 819.236 18.7751C817.419 21.1178 815.691 23.1258 814.051 24.7992C812.41 26.4726 810.828 27.9116 809.305 29.1165C808.485 29.6519 807.43 29.9197 806.141 29.9197H781.359C777.492 29.9197 774.855 30.8568 773.449 32.7309C772.043 34.6051 771.34 37.8179 771.34 42.3695Z" fill="url(#paint6_linear_164_320)"/>
<path d="M866.604 142.169C866.604 144.177 866.223 145.582 865.462 146.386C864.759 147.122 863.528 147.49 861.771 147.49H843.052C841.294 147.49 840.034 147.122 839.273 146.386C838.57 145.582 838.218 144.177 838.218 142.169V19.5783C838.218 17.6372 838.511 16.1647 839.097 15.1606C841.733 10.743 845.424 6.09103 850.17 1.20482C851.049 0.401606 851.811 0 852.455 0C853.158 0 853.89 0.401606 854.652 1.20482C857.23 3.74833 859.398 6.19143 861.155 8.53414C862.913 10.8099 864.436 13.0187 865.725 15.1606C866.311 16.2316 866.604 17.7042 866.604 19.5783V142.169Z" fill="url(#paint7_linear_164_320)"/>
<path d="M947.719 122.892C951.996 122.892 955.336 122.39 957.738 121.386C960.198 120.382 962.102 119.143 963.45 117.671C964.798 116.198 965.969 114.726 966.965 113.253C967.903 111.914 968.664 110.91 969.25 110.241C969.895 109.572 970.773 109.103 971.887 108.835C972.824 108.501 974.318 108.3 976.369 108.233C978.478 108.099 980.558 108.032 982.608 108.032C984.717 108.032 986.182 108.099 987.002 108.233C988.233 108.3 989.082 108.568 989.551 109.036C990.02 109.505 990.313 110.509 990.43 112.048C990.606 114.19 990.693 116.734 990.693 119.679C990.752 122.624 990.723 125.167 990.606 127.309C990.547 127.979 990.43 128.548 990.254 129.016C990.137 129.485 989.844 130.187 989.375 131.124C988.789 132.195 987.647 133.768 985.948 135.843C984.249 137.851 981.759 139.96 978.478 142.169C975.197 144.311 970.949 146.151 965.735 147.691C960.579 149.23 954.222 150 946.665 150C938.579 150 931.022 148.829 923.991 146.486C916.96 144.076 910.779 140.06 905.448 134.438C900.175 128.815 896.045 121.218 893.057 111.647C890.127 102.075 888.662 90.1272 888.662 75.8032C888.662 59.8728 891.065 46.3521 895.869 35.241C900.732 24.0629 907.616 15.5622 916.521 9.73896C925.426 3.91566 935.972 1.00402 948.159 1.00402C956.712 1.00402 963.567 2.00803 968.723 4.01606C973.937 6.0241 977.892 8.40027 980.587 11.1446C983.282 13.822 985.186 16.1647 986.299 18.1727C986.709 18.909 987.002 19.5783 987.178 20.1807C987.354 20.7162 987.471 21.5863 987.53 22.7912C987.705 24.3976 987.735 26.7403 987.618 29.8193C987.559 32.8983 987.354 35.6091 987.002 37.9518C986.768 39.4244 986.387 40.3949 985.86 40.8635C985.626 41.1312 985.215 41.3655 984.63 41.5663C984.044 41.7671 983.165 41.8675 981.993 41.8675C980.118 41.8675 978.009 41.8005 975.666 41.6667C973.322 41.4659 971.564 41.2651 970.393 41.0643C968.987 40.7965 967.961 40.4284 967.317 39.9598C966.672 39.4244 966.028 38.6212 965.383 37.5502C964.329 35.8099 962.513 33.8019 959.935 31.5261C957.357 29.2503 953.109 28.1125 947.192 28.1125C938.872 28.1125 932.018 31.7938 926.627 39.1566C921.237 46.4525 918.542 58.2999 918.542 74.6988C918.542 91.0308 921.354 103.146 926.979 111.044C932.662 118.942 939.575 122.892 947.719 122.892Z" fill="url(#paint8_linear_164_320)"/>
<path d="M1031.82 147.49C1025.79 147.49 1021.19 146.62 1018.02 144.88C1014.92 143.139 1012.81 140.295 1011.7 136.345C1010.64 132.396 1010.12 127.142 1010.12 120.582V30.4217C1010.12 23.7282 1010.64 18.4404 1011.7 14.5582C1012.81 10.6091 1014.92 7.79786 1018.02 6.1245C1021.19 4.3842 1025.79 3.51406 1031.82 3.51406H1073.13C1074.53 3.51406 1075.59 3.78179 1076.29 4.31727C1077.81 5.52209 1079.4 6.96118 1081.04 8.63454C1082.68 10.3079 1084.4 12.3159 1086.22 14.6586C1086.81 15.5288 1087.1 16.2316 1087.1 16.7671C1087.1 17.3695 1086.81 18.0388 1086.22 18.7751C1084.4 21.1178 1082.68 23.1258 1081.04 24.7992C1079.4 26.4726 1077.81 27.9116 1076.29 29.1165C1075.47 29.6519 1074.42 29.9197 1073.13 29.9197H1048.52C1044.65 29.9197 1042.02 30.8568 1040.61 32.7309C1039.2 34.6051 1038.5 37.8179 1038.5 42.3695V61.8474H1070.05C1071.46 61.8474 1072.51 62.1151 1073.21 62.6506C1074.74 63.8554 1076.32 65.2945 1077.96 66.9679C1079.6 68.6412 1081.33 70.6493 1083.15 72.992C1083.73 73.8621 1084.02 74.5649 1084.02 75.1004C1084.02 75.7028 1083.73 76.3722 1083.15 77.1084C1081.33 79.4511 1079.6 81.4592 1077.96 83.1325C1076.32 84.8059 1074.74 86.245 1073.21 87.4498C1072.39 87.9853 1071.34 88.253 1070.05 88.253H1038.5V108.534C1038.5 113.019 1039.2 116.232 1040.61 118.173C1042.02 120.114 1044.65 121.084 1048.52 121.084H1076.03C1077.43 121.084 1078.49 121.352 1079.19 121.888C1080.71 123.092 1082.3 124.531 1083.94 126.205C1085.58 127.878 1087.3 129.886 1089.12 132.229C1089.71 133.099 1090 133.802 1090 134.337C1090 134.94 1089.71 135.609 1089.12 136.345C1087.3 138.688 1085.58 140.696 1083.94 142.369C1082.3 144.043 1080.71 145.482 1079.19 146.687C1078.37 147.222 1077.32 147.49 1076.03 147.49H1031.82Z" fill="url(#paint9_linear_164_320)"/>
<path d="M56.7199 101.398C55.1966 101.398 53.9077 100.963 52.8531 100.092C51.7399 99.2222 50.4217 97.9839 48.8984 96.3775C47.3751 94.7711 45.6761 92.7965 43.8013 90.4538C43.0982 89.5167 42.7467 88.6801 42.7467 87.9438C42.7467 87.2075 43.0982 86.3708 43.8013 85.4337C47.4337 80.7483 50.7439 77.3012 53.7319 75.0924C54.435 74.5569 55.431 74.2892 56.7199 74.2892C60.7039 74.2892 64.1313 72.5823 67.0021 69.1687C69.9315 65.755 71.3376 60.2329 71.2204 52.6024C71.1618 44.3695 69.3749 38.6131 65.8596 35.3333C62.4029 32.0536 57.6573 30.4137 51.6228 30.4137H47.4044C43.5376 30.4137 40.9012 31.3507 39.495 33.2249C38.0889 35.0991 37.3859 38.3119 37.3859 42.8635V144.169C37.3859 146.177 37.0051 147.582 36.2434 148.386C35.5404 149.122 34.31 149.49 32.5524 149.49H13.8335C12.0759 149.49 10.8162 149.122 10.0546 148.386C9.35153 147.582 9 146.177 9 144.169V32.4217C9 25.7282 9.52729 20.4404 10.5819 16.5582C11.695 12.6091 13.8042 9.79786 16.9094 8.1245C20.0731 6.3842 24.6723 5.51406 30.7068 5.51406H51.6228C68.4375 5.51406 80.8874 9.29585 88.9726 16.8594C97.0577 24.3561 101.1 35.8688 101.1 51.3976C101.1 63.0442 98.9618 72.5489 94.6849 79.9117C90.4666 87.2744 84.9593 92.6961 78.1631 96.1767C71.4255 99.6573 64.2778 101.398 56.7199 101.398Z" fill="#5FAA71"/>
<path d="M174.482 152C162.295 152 151.691 149.323 142.668 143.968C133.646 138.613 126.645 130.548 121.665 119.771C116.743 108.995 114.283 95.5408 114.283 79.4096C114.283 53.7738 119.761 34.664 130.717 22.0803C141.672 9.42972 156.935 3.10442 176.503 3.10442C194.841 3.10442 209.342 9.29585 220.005 21.6787C230.668 33.9946 235.999 52.2677 235.999 76.498C235.999 93.6332 233.509 107.79 228.529 118.968C223.549 130.079 216.46 138.379 207.262 143.867C198.063 149.289 187.137 152 174.482 152ZM175.009 124.892C185.555 124.892 193.376 120.574 198.474 111.94C203.571 103.305 206.119 92.0937 206.119 78.3052C206.119 62.3079 203.717 50.2932 198.913 42.261C194.109 34.2289 186.375 30.2129 175.712 30.2129C154.679 30.2129 144.162 46.0428 144.162 77.7028C144.162 91.826 146.682 103.238 151.72 111.94C156.817 120.574 164.58 124.892 175.009 124.892Z" fill="#5FAA71"/>
<path d="M292.156 151.9C284.715 151.9 278.534 151.13 273.613 149.59C268.75 148.051 264.824 146.143 261.836 143.867C258.907 141.525 256.651 139.216 255.07 136.94C254.542 136.07 254.074 135.233 253.663 134.43C253.253 133.627 252.96 132.723 252.785 131.719C252.55 130.38 252.316 128.64 252.082 126.498C251.847 124.289 251.818 121.746 251.994 118.867C252.052 117.663 252.257 116.826 252.609 116.357C253.019 115.822 253.693 115.42 254.63 115.153C256.329 114.684 258.526 114.282 261.221 113.948C263.975 113.546 265.938 113.345 267.109 113.345C268.34 113.345 269.336 113.613 270.097 114.149C270.859 114.684 271.767 115.588 272.822 116.859C273.993 118.265 276.015 120.072 278.886 122.281C281.756 124.423 286.18 125.494 292.156 125.494C297.897 125.494 302.233 124.122 305.162 121.378C308.092 118.633 309.556 114.818 309.556 109.932C309.556 107.321 308.853 104.878 307.447 102.602C306.1 100.26 303.61 97.9505 299.977 95.6747C296.345 93.332 291.16 90.8889 284.422 88.3454C273.29 84.0616 265.264 78.7403 260.342 72.3815C255.421 66.0228 252.96 57.1874 252.96 45.8755C252.96 36.5047 254.952 28.6734 258.936 22.3815C262.92 16.0897 268.428 11.3373 275.458 8.1245C282.489 4.91165 290.603 3.30522 299.801 3.30522C306.891 3.30522 312.749 4.27577 317.378 6.21687C322.065 8.09103 325.697 10.2329 328.275 12.6426C330.853 14.9853 332.523 16.8929 333.284 18.3655C333.753 19.2356 334.046 19.905 334.163 20.3735C334.339 20.7751 334.456 21.344 334.515 22.0803C334.691 24.1553 334.749 26.4645 334.691 29.008C334.632 31.5515 334.427 34.4297 334.075 37.6426C333.9 38.7135 333.577 39.4498 333.109 39.8514C332.699 40.1861 332.054 40.3534 331.175 40.3534C325.492 40.4873 321.098 40.1526 317.993 39.3494C316.763 39.0147 315.942 38.6801 315.532 38.3454C315.122 38.0107 314.595 37.4752 313.95 36.739C313.013 35.4672 311.519 33.9946 309.468 32.3213C307.476 30.581 304.254 29.7108 299.801 29.7108C293.65 29.7108 289.285 31.3173 286.707 34.5301C284.129 37.676 282.84 41.2236 282.84 45.1727C282.84 49.8581 284.744 53.5395 288.553 56.2169C292.361 58.8273 298.366 61.8059 306.568 65.1526C313.423 67.8969 319.311 70.8755 324.233 74.0884C329.154 77.3012 332.904 81.4177 335.482 86.4378C338.118 91.4578 339.436 98.0843 339.436 106.317C339.436 116.558 337.356 125.059 333.197 131.819C329.095 138.58 323.471 143.633 316.323 146.98C309.234 150.26 301.178 151.9 292.156 151.9Z" fill="#5FAA71"/>
<path d="M415.015 144.169C415.015 146.177 414.634 147.582 413.872 148.386C413.169 149.122 411.939 149.49 410.181 149.49H391.462C389.705 149.49 388.445 149.122 387.683 148.386C386.98 147.582 386.629 146.177 386.629 144.169V31.9197H360.44C359.034 31.9197 357.979 31.6519 357.276 31.1165C355.753 29.9116 354.171 28.4726 352.531 26.7992C350.949 25.1258 349.22 23.1178 347.346 20.7751C346.76 19.905 346.467 19.2021 346.467 18.6667C346.467 18.0643 346.76 17.3949 347.346 16.6586C349.22 14.3159 350.949 12.3079 352.531 10.6345C354.171 8.96118 355.753 7.52209 357.276 6.31727C358.096 5.78179 359.151 5.51406 360.44 5.51406H441.291C442.697 5.51406 443.752 5.78179 444.455 6.31727C445.978 7.52209 447.56 8.96118 449.201 10.6345C450.841 12.3079 452.57 14.3159 454.386 16.6586C454.972 17.5288 455.265 18.2316 455.265 18.7671C455.265 19.3695 454.972 20.0388 454.386 20.7751C452.57 23.1178 450.841 25.1258 449.201 26.7992C447.56 28.4726 445.978 29.9116 444.455 31.1165C443.635 31.6519 442.58 31.9197 441.291 31.9197H415.015V144.169Z" fill="#5FAA71"/>
<path d="M573.114 152C560.928 152 550.324 149.323 541.301 143.968C532.279 138.613 525.277 130.548 520.297 119.771C515.376 108.995 512.915 95.5408 512.915 79.4096C512.915 53.7738 518.393 34.664 529.349 22.0803C540.305 9.42972 555.567 3.10442 575.136 3.10442C593.474 3.10442 607.974 9.29585 618.637 21.6787C629.3 33.9946 634.632 52.2677 634.632 76.498C634.632 93.6332 632.142 107.79 627.162 118.968C622.182 130.079 615.093 138.379 605.894 143.867C596.696 149.289 585.769 152 573.114 152ZM573.642 124.892C584.187 124.892 592.009 120.574 597.106 111.94C602.203 103.305 604.752 92.0937 604.752 78.3052C604.752 62.3079 602.35 50.2932 597.546 42.261C592.741 34.2289 585.008 30.2129 574.345 30.2129C553.312 30.2129 542.795 46.0428 542.795 77.7028C542.795 91.826 545.314 103.238 550.353 111.94C555.45 120.574 563.213 124.892 573.642 124.892Z" fill="#5FAA71"/>
<path d="M685.076 44.3695V67.261H716.274C717.68 67.261 718.735 67.5288 719.438 68.0643C720.961 69.2691 722.543 70.7082 724.183 72.3815C725.824 74.0549 727.552 76.0629 729.368 78.4056C729.954 79.2758 730.247 79.9786 730.247 80.5141C730.247 81.1165 729.954 81.7858 729.368 82.5221C727.552 84.8648 725.824 86.8728 724.183 88.5462C722.543 90.2195 720.961 91.6586 719.438 92.8635C718.618 93.3989 717.563 93.6667 716.274 93.6667H685.076V144.169C685.076 146.177 684.695 147.582 683.933 148.386C683.23 149.122 682 149.49 680.242 149.49H661.524C659.766 149.49 658.506 149.122 657.745 148.386C657.042 147.582 656.69 146.177 656.69 144.169V32.4217C656.69 25.7282 657.217 20.4404 658.272 16.5582C659.385 12.6091 661.494 9.79786 664.599 8.1245C667.763 6.3842 672.362 5.51406 678.397 5.51406H719.877C721.283 5.51406 722.338 5.78179 723.041 6.31727C724.564 7.52209 726.146 8.96118 727.787 10.6345C729.427 12.3079 731.155 14.3159 732.972 16.6586C733.557 17.5288 733.85 18.2316 733.85 18.7671C733.85 19.3695 733.557 20.0388 732.972 20.7751C731.155 23.1178 729.427 25.1258 727.787 26.7992C726.146 28.4726 724.564 29.9116 723.041 31.1165C722.221 31.6519 721.166 31.9197 719.877 31.9197H695.094C691.228 31.9197 688.591 32.8568 687.185 34.7309C685.779 36.6051 685.076 39.8179 685.076 44.3695Z" fill="#5FAA71"/>
<path d="M780.34 44.3695V67.261H811.538C812.944 67.261 813.999 67.5288 814.702 68.0643C816.225 69.2691 817.807 70.7082 819.448 72.3815C821.088 74.0549 822.816 76.0629 824.633 78.4056C825.218 79.2758 825.511 79.9786 825.511 80.5141C825.511 81.1165 825.218 81.7858 824.633 82.5221C822.816 84.8648 821.088 86.8728 819.448 88.5462C817.807 90.2195 816.225 91.6586 814.702 92.8635C813.882 93.3989 812.827 93.6667 811.538 93.6667H780.34V144.169C780.34 146.177 779.959 147.582 779.198 148.386C778.495 149.122 777.264 149.49 775.507 149.49H756.788C755.03 149.49 753.77 149.122 753.009 148.386C752.306 147.582 751.954 146.177 751.954 144.169V32.4217C751.954 25.7282 752.481 20.4404 753.536 16.5582C754.649 12.6091 756.758 9.79786 759.864 8.1245C763.027 6.3842 767.626 5.51406 773.661 5.51406H815.141C816.547 5.51406 817.602 5.78179 818.305 6.31727C819.828 7.52209 821.41 8.96118 823.051 10.6345C824.691 12.3079 826.419 14.3159 828.236 16.6586C828.822 17.5288 829.115 18.2316 829.115 18.7671C829.115 19.3695 828.822 20.0388 828.236 20.7751C826.419 23.1178 824.691 25.1258 823.051 26.7992C821.41 28.4726 819.828 29.9116 818.305 31.1165C817.485 31.6519 816.43 31.9197 815.141 31.9197H790.359C786.492 31.9197 783.855 32.8568 782.449 34.7309C781.043 36.6051 780.34 39.8179 780.34 44.3695Z" fill="#5FAA71"/>
<path d="M875.604 144.169C875.604 146.177 875.223 147.582 874.462 148.386C873.759 149.122 872.528 149.49 870.771 149.49H852.052C850.294 149.49 849.034 149.122 848.273 148.386C847.57 147.582 847.218 146.177 847.218 144.169V21.5783C847.218 19.6372 847.511 18.1647 848.097 17.1606C850.733 12.743 854.424 8.09103 859.17 3.20482C860.049 2.40161 860.811 2 861.455 2C862.158 2 862.89 2.40161 863.652 3.20482C866.23 5.74833 868.398 8.19143 870.155 10.5341C871.913 12.8099 873.436 15.0187 874.725 17.1606C875.311 18.2316 875.604 19.7042 875.604 21.5783V144.169Z" fill="#5FAA71"/>
<path d="M956.719 124.892C960.996 124.892 964.336 124.39 966.738 123.386C969.198 122.382 971.102 121.143 972.45 119.671C973.798 118.198 974.969 116.726 975.965 115.253C976.903 113.914 977.664 112.91 978.25 112.241C978.895 111.572 979.773 111.103 980.887 110.835C981.824 110.501 983.318 110.3 985.369 110.233C987.478 110.099 989.558 110.032 991.608 110.032C993.717 110.032 995.182 110.099 996.002 110.233C997.233 110.3 998.082 110.568 998.551 111.036C999.02 111.505 999.313 112.509 999.43 114.048C999.606 116.19 999.693 118.734 999.693 121.679C999.752 124.624 999.723 127.167 999.606 129.309C999.547 129.979 999.43 130.548 999.254 131.016C999.137 131.485 998.844 132.187 998.375 133.124C997.789 134.195 996.647 135.768 994.948 137.843C993.249 139.851 990.759 141.96 987.478 144.169C984.197 146.311 979.949 148.151 974.735 149.691C969.579 151.23 963.222 152 955.665 152C947.579 152 940.022 150.829 932.991 148.486C925.96 146.076 919.779 142.06 914.448 136.438C909.175 130.815 905.045 123.218 902.057 113.647C899.127 104.075 897.662 92.1272 897.662 77.8032C897.662 61.8728 900.065 48.3521 904.869 37.241C909.732 26.0629 916.616 17.5622 925.521 11.739C934.426 5.91566 944.972 3.00402 957.159 3.00402C965.712 3.00402 972.567 4.00803 977.723 6.01606C982.937 8.0241 986.892 10.4003 989.587 13.1446C992.282 15.822 994.186 18.1647 995.299 20.1727C995.709 20.909 996.002 21.5783 996.178 22.1807C996.354 22.7162 996.471 23.5863 996.53 24.7912C996.705 26.3976 996.735 28.7403 996.618 31.8193C996.559 34.8983 996.354 37.6091 996.002 39.9518C995.768 41.4244 995.387 42.3949 994.86 42.8635C994.626 43.1312 994.215 43.3655 993.63 43.5663C993.044 43.7671 992.165 43.8675 990.993 43.8675C989.118 43.8675 987.009 43.8005 984.666 43.6667C982.322 43.4659 980.564 43.2651 979.393 43.0643C977.987 42.7965 976.961 42.4284 976.317 41.9598C975.672 41.4244 975.028 40.6212 974.383 39.5502C973.329 37.8099 971.513 35.8019 968.935 33.5261C966.357 31.2503 962.109 30.1125 956.192 30.1125C947.872 30.1125 941.018 33.7938 935.627 41.1566C930.237 48.4525 927.542 60.2999 927.542 76.6988C927.542 93.0308 930.354 105.146 935.979 113.044C941.662 120.942 948.575 124.892 956.719 124.892Z" fill="#5FAA71"/>
<path d="M1040.82 149.49C1034.79 149.49 1030.19 148.62 1027.02 146.88C1023.92 145.139 1021.81 142.295 1020.7 138.345C1019.64 134.396 1019.12 129.142 1019.12 122.582V32.4217C1019.12 25.7282 1019.64 20.4404 1020.7 16.5582C1021.81 12.6091 1023.92 9.79786 1027.02 8.1245C1030.19 6.3842 1034.79 5.51406 1040.82 5.51406H1082.13C1083.53 5.51406 1084.59 5.78179 1085.29 6.31727C1086.81 7.52209 1088.4 8.96118 1090.04 10.6345C1091.68 12.3079 1093.4 14.3159 1095.22 16.6586C1095.81 17.5288 1096.1 18.2316 1096.1 18.7671C1096.1 19.3695 1095.81 20.0388 1095.22 20.7751C1093.4 23.1178 1091.68 25.1258 1090.04 26.7992C1088.4 28.4726 1086.81 29.9116 1085.29 31.1165C1084.47 31.6519 1083.42 31.9197 1082.13 31.9197H1057.52C1053.65 31.9197 1051.02 32.8568 1049.61 34.7309C1048.2 36.6051 1047.5 39.8179 1047.5 44.3695V63.8474H1079.05C1080.46 63.8474 1081.51 64.1151 1082.21 64.6506C1083.74 65.8554 1085.32 67.2945 1086.96 68.9679C1088.6 70.6412 1090.33 72.6493 1092.15 74.992C1092.73 75.8621 1093.02 76.5649 1093.02 77.1004C1093.02 77.7028 1092.73 78.3722 1092.15 79.1084C1090.33 81.4511 1088.6 83.4592 1086.96 85.1325C1085.32 86.8059 1083.74 88.245 1082.21 89.4498C1081.39 89.9853 1080.34 90.253 1079.05 90.253H1047.5V110.534C1047.5 115.019 1048.2 118.232 1049.61 120.173C1051.02 122.114 1053.65 123.084 1057.52 123.084H1085.03C1086.43 123.084 1087.49 123.352 1088.19 123.888C1089.71 125.092 1091.3 126.531 1092.94 128.205C1094.58 129.878 1096.3 131.886 1098.12 134.229C1098.71 135.099 1099 135.802 1099 136.337C1099 136.94 1098.71 137.609 1098.12 138.345C1096.3 140.688 1094.58 142.696 1092.94 144.369C1091.3 146.043 1089.71 147.482 1088.19 148.687C1087.37 149.222 1086.32 149.49 1085.03 149.49H1040.82Z" fill="#5FAA71"/>
<defs>
<linearGradient id="paint0_linear_164_320" x1="553.92" y1="-68.1683" x2="553.92" y2="203.863" gradientUnits="userSpaceOnUse">
<stop offset="0.413462" stop-color="#69259D"/>
</linearGradient>
<linearGradient id="paint1_linear_164_320" x1="553.92" y1="-68.1683" x2="553.92" y2="203.863" gradientUnits="userSpaceOnUse">
<stop offset="0.413462" stop-color="#69259D"/>
</linearGradient>
<linearGradient id="paint2_linear_164_320" x1="553.92" y1="-68.1683" x2="553.92" y2="203.863" gradientUnits="userSpaceOnUse">
<stop offset="0.413462" stop-color="#69259D"/>
</linearGradient>
<linearGradient id="paint3_linear_164_320" x1="553.92" y1="-68.1683" x2="553.92" y2="203.863" gradientUnits="userSpaceOnUse">
<stop offset="0.413462" stop-color="#69259D"/>
</linearGradient>
<linearGradient id="paint4_linear_164_320" x1="553.92" y1="-68.1683" x2="553.92" y2="203.863" gradientUnits="userSpaceOnUse">
<stop offset="0.413462" stop-color="#69259D"/>
</linearGradient>
<linearGradient id="paint5_linear_164_320" x1="553.92" y1="-68.1683" x2="553.92" y2="203.863" gradientUnits="userSpaceOnUse">
<stop offset="0.413462" stop-color="#69259D"/>
</linearGradient>
<linearGradient id="paint6_linear_164_320" x1="553.92" y1="-68.1683" x2="553.92" y2="203.863" gradientUnits="userSpaceOnUse">
<stop offset="0.413462" stop-color="#69259D"/>
</linearGradient>
<linearGradient id="paint7_linear_164_320" x1="553.92" y1="-68.1683" x2="553.92" y2="203.863" gradientUnits="userSpaceOnUse">
<stop offset="0.413462" stop-color="#69259D"/>
</linearGradient>
<linearGradient id="paint8_linear_164_320" x1="553.92" y1="-68.1683" x2="553.92" y2="203.863" gradientUnits="userSpaceOnUse">
<stop offset="0.413462" stop-color="#69259D"/>
</linearGradient>
<linearGradient id="paint9_linear_164_320" x1="553.92" y1="-68.1683" x2="553.92" y2="203.863" gradientUnits="userSpaceOnUse">
<stop offset="0.413462" stop-color="#69259D"/>
</linearGradient>
</defs>
</svg>
